<?xml version="1.0" standalone="no"?>
<!DOCTYPE svg PUBLIC "-//W3C//DTD SVG 1.1//EN" "http://www.w3.org/Graphics/SVG/1.1/DTD/svg11.dtd" >
<svg xmlns="http://www.w3.org/2000/svg">
<metadata></metadata>
<defs>
<font id="hello_typelight" horiz-adv-x="1396" >
<font-face units-per-em="2048" ascent="1546" descent="-502" />
<missing-glyph horiz-adv-x="643" />
<glyph unicode="&#xfb01;" horiz-adv-x="1411" d="M-102 -346q0 26 15.5 42.5t35.5 16.5q22 0 73 -12t76 -12q47 0 83 11.5t62.5 46.5t26.5 91v1125h-172q-53 0 -53 55q0 47 53 47h174v92q0 91 30 159.5t83.5 109t121.5 60t150 19.5q27 0 43 -0.5t45 -2t47 -5.5t37.5 -10.5t29 -18t9.5 -26.5q0 -56 -45 -56 q-23 0 -79.5 8.5t-88.5 8.5q-127 0 -198.5 -56.5t-71.5 -189.5v-92h727q53 0 53 -53v-959q0 -53 -53 -53h-6q-53 0 -53 53v910h-668v-1133q0 -124 -81 -188t-204 -64q-28 0 -59 3.5t-65 11t-56 23.5t-22 38zM1053 1268v84q0 53 53 53h6q53 0 53 -53v-84q0 -54 -53 -54h-6 q-53 0 -53 54z" />
<glyph unicode="&#xfb02;" horiz-adv-x="1550" d="M-102 -346q0 26 15.5 42.5t35.5 16.5q22 0 73 -12t76 -12q47 0 83.5 12t62.5 47t26 90v1125h-172q-53 0 -53 55q0 47 53 47h174v92q0 91 30 159.5t83.5 109t121.5 60t150 19.5q27 0 43 -0.5t45 -2t47 -5.5t37.5 -10.5t29 -18t9.5 -26.5q0 -56 -45 -56q-23 0 -79.5 8.5 t-88.5 8.5q-127 0 -198.5 -56.5t-71.5 -189.5v-92h324q51 0 51 -45q0 -57 -60 -57h-315v-959q0 -73 -2 -118t-8.5 -94t-19 -77.5t-34.5 -56t-54.5 -43.5t-78.5 -27q-48 -10 -88 -10q-28 0 -59 3.5t-65 11t-56 23.5t-22 38zM1053 326v1134q0 26 16 41t39 15q24 0 40.5 -14.5 t16.5 -41.5v-1274q0 -104 138 -104q32 0 94.5 18.5t85.5 18.5q20 0 33.5 -15.5t13.5 -40.5q0 -39 -80 -63.5t-158 -24.5q-61 0 -102 11.5t-68.5 35t-42.5 67t-20.5 98.5t-5.5 139z" />
<glyph horiz-adv-x="682" />
<glyph unicode="&#xd;" horiz-adv-x="647" />
<glyph unicode=" "  horiz-adv-x="643" />
<glyph unicode="&#x09;" horiz-adv-x="643" />
<glyph unicode="&#xa0;" horiz-adv-x="643" />
<glyph unicode="!" horiz-adv-x="661" d="M260 53v37q0 55 55 55h27q53 0 53 -55v-37q0 -53 -53 -53h-27q-55 0 -55 53zM266 1329q0 36 12.5 56t47.5 20h10q34 0 45.5 -20t11.5 -56l-8 -971q0 -53 -55 -53q-56 0 -56 53z" />
<glyph unicode="&#x22;" horiz-adv-x="1026" d="M219 993v37v275q0 32 1 46.5t6.5 29.5t18 19.5t34.5 4.5q17 0 29 -7t17.5 -16.5t8 -27.5t2.5 -30t-1 -34.5t-1 -32.5v-227q0 -25 -0.5 -37.5t-3.5 -27.5t-9.5 -21.5t-18 -10.5t-28.5 -3q-17 0 -27.5 5t-16.5 10t-8.5 22t-2.5 26zM692 1030v275q0 32 1 46.5t6.5 29.5 t18 19.5t34.5 4.5q18 0 30 -7t17.5 -16.5t8 -27t2 -30.5t-1.5 -34.5t-1 -32.5v-227q0 -26 -0.5 -37.5t-3 -27.5t-8.5 -22t-17 -10t-28 -3q-17 0 -28.5 5t-17.5 10.5t-8.5 21.5t-3 26.5t-0.5 36.5z" />
<glyph unicode="#" horiz-adv-x="1613" d="M74 426q0 18 8.5 30.5t20 18t31.5 7.5t35.5 1.5t40 -1.5t36.5 -1h164l77 441h-133q-12 0 -44 -1.5t-51 -1t-42.5 3.5t-35 13t-11.5 27q0 11 1.5 20t6 15t8 11t12.5 7.5t13 4.5t16.5 2.5t17 0.5h20.5h20h221l47 276q1 6 3.5 22.5t4 23t5 18.5t8 17.5t11.5 12t17 9t23 2.5 q58 0 49 -57l-56 -324h492l47 276q1 6 3.5 22.5t4 23t5 18.5t8 17.5t11.5 12t17 9t23 2.5q58 0 49 -57l-55 -324h198q7 0 24 0.5t25 0t21.5 -1.5t20 -4t14.5 -8t11 -13.5t3 -20.5q0 -18 -8.5 -30.5t-20 -18t-31.5 -7.5t-35.5 -1.5t-40 1.5t-36.5 1h-164l-78 -441h131 q13 0 45.5 1.5t52 1.5t43 -3.5t35 -14.5t11.5 -30q0 -17 -6 -28t-12.5 -17t-23 -9t-25.5 -3h-33h-15h-221l-49 -275q-1 -7 -4 -26t-4.5 -26t-6.5 -20t-11 -18t-17.5 -9.5t-26.5 -4.5q-51 0 -51 45q0 8 57 334h-491l-49 -275q-1 -7 -4 -26t-4.5 -26t-6.5 -20t-11 -18 t-17.5 -9.5t-26.5 -4.5q-51 0 -51 45q0 8 2 12l55 322h-198q-7 0 -24 -0.5t-25 0t-21.5 1.5t-20 4t-14.5 8t-11 13.5t-3 20.5zM522 481h492l78 441h-492z" />
<glyph unicode="$" horiz-adv-x="1355" d="M139 240q0 18 19 38.5t37 20.5q6 0 18 -4q10 -3 41 -26t49 -31q175 -99 399 -99q77 0 134 8q131 16 209.5 69.5t78.5 141.5q0 57 -32.5 98.5t-87 66.5t-125.5 43t-149.5 32.5t-157 30t-149.5 40.5t-125.5 59.5t-87 91t-32.5 130.5q0 69 26 125.5t70 94t105.5 64.5 t128.5 41t143 19v158q0 53 54 53q53 0 53 -53v-160q381 -29 446 -313q2 -6 2 -16q0 -18 -13.5 -31.5t-37.5 -13.5q-3 -3 -12 -3q-18 0 -34 20t-30.5 50t-44.5 65.5t-70 65.5t-114 50t-170 20q-104 0 -187 -21.5t-138.5 -74t-55.5 -129.5q0 -56 32.5 -97.5t87 -66.5 t125.5 -43.5t149.5 -33.5t157 -31t149.5 -40.5t125.5 -58.5t87 -88.5t32.5 -126.5q0 -84 -36.5 -148t-104 -103.5t-153.5 -61.5t-193 -27v-158q0 -53 -53 -53q-54 0 -54 53v158q-152 7 -302.5 55.5t-203.5 128.5q-6 9 -6 21z" />
<glyph unicode="%" horiz-adv-x="1718" d="M106 1092q0 168 88 253t236 85q149 0 235.5 -84t86.5 -256q0 -163 -88 -249.5t-234 -86.5t-235 84.5t-89 253.5zM209 1092q0 -130 58 -185t163 -55q217 0 217 238q0 131 -57.5 187t-159.5 56q-105 0 -163 -55.5t-58 -185.5zM252 33q0 14 16 33l1078 1306q16 22 35 27.5 t57 5.5q12 0 19 -7t7 -18q0 -19 -16 -41l-1079 -1306q-26 -33 -68 -33q-49 0 -49 33zM965 313q0 168 87.5 253t235.5 85q150 0 237 -84t87 -256q0 -162 -89 -249t-235 -87t-234.5 84.5t-88.5 253.5zM1067 313q0 -130 58 -185.5t163 -55.5q103 0 160 55t57 184q0 132 -57 187 t-160 55q-105 0 -163 -55t-58 -185z" />
<glyph unicode="&#x26;" horiz-adv-x="1458" d="M94 340q0 269 346 395q-118 91 -186 179.5t-68 185.5q0 148 114.5 240t313.5 92t306.5 -89.5t107.5 -232.5q0 -63 -25 -119.5t-61 -96.5t-91 -77.5t-99 -60.5t-101 -47l400 -318q67 108 67 275q0 26 16.5 40.5t39.5 14.5q24 0 41.5 -16.5t17.5 -45.5q0 -174 -84 -335 l285 -246q22 -16 22 -41q0 -19 -14 -34t-35 -15q-19 0 -39 14l-281 225q-83 -111 -222.5 -182.5t-313.5 -71.5q-204 0 -330.5 97t-126.5 270zM215 338q0 -53 19.5 -96.5t52.5 -72.5t77 -48.5t91.5 -28t97.5 -8.5q80 0 148.5 18t122.5 52.5t91 67t78 77.5l-463 365 q-70 -24 -123 -51.5t-98.5 -66t-69.5 -91.5t-24 -117zM309 1104q0 -25 5.5 -49t12.5 -42t24.5 -40.5t29 -36t38.5 -37t41 -35t48.5 -38.5t50.5 -40q78 27 135 55.5t107 67t76 89t26 112.5q0 100 -76.5 155.5t-214.5 55.5q-83 0 -149 -21.5t-110 -71.5t-44 -124z" />
<glyph unicode="'" horiz-adv-x="552" d="M219 993v37v275q0 32 1 46.5t6.5 29.5t18 19.5t34.5 4.5q17 0 29 -7t17.5 -16.5t8 -27.5t2.5 -30t-1 -34.5t-1 -32.5v-227q0 -25 -0.5 -37.5t-3.5 -27.5t-9.5 -21.5t-18 -10.5t-28.5 -3q-17 0 -27.5 5t-16.5 10t-8.5 22t-2.5 26z" />
<glyph unicode="(" horiz-adv-x="862" d="M188 512q0 553 469 969q14 12 29.5 17.5t26.5 6t39 0.5q22 0 22 -18q0 -23 -24 -47q-74 -72 -133.5 -140.5t-120.5 -159.5t-101.5 -183.5t-66 -207.5t-25.5 -237t25.5 -237t66 -207.5t101.5 -183.5t120.5 -159.5t133.5 -140.5q18 -22 18 -37q0 -28 -47 -28q-37 0 -64 24 q-67 57 -128.5 123t-125.5 159.5t-110 194.5t-75.5 229.5t-29.5 262.5z" />
<glyph unicode=")" horiz-adv-x="862" d="M94 -453q0 16 21 37q74 72 133.5 140.5t119.5 159.5t100 183.5t65.5 207.5t25.5 237t-25.5 237t-65.5 207.5t-100 183.5t-119.5 159.5t-133.5 140.5q-21 21 -21 35q0 30 49 30q35 0 62 -24q469 -416 469 -969q0 -135 -30 -263.5t-75.5 -227.5t-110.5 -193t-124.5 -159 t-128.5 -126q-27 -24 -66 -24q-45 0 -45 28z" />
<glyph unicode="*" horiz-adv-x="1134" d="M166 864q0 31 35 45l280 127l-280 123q-35 15 -35 45q0 21 13.5 37t33.5 16q21 0 33 -6l280 -147q0 26 -4 115.5t-4 132.5q0 53 51 53q47 0 47 -53q0 -18 -8 -246l283 147q18 7 29 7q17 0 32 -14t15 -40q0 -31 -33 -45l-283 -125l283 -127q33 -17 33 -45q0 -20 -13 -36.5 t-30 -16.5q-13 0 -33 10l-283 144q0 -29 4 -123t4 -121q0 -55 -53 -55q-45 0 -45 49q0 14 8 250l-282 -146q-13 -8 -29 -8q-17 0 -33 14.5t-16 38.5z" />
<glyph unicode="+" d="M176 666v2q0 55 55 55h412v356q0 56 53 56h2q54 0 54 -56v-356h413q56 0 56 -55v-2q0 -54 -56 -54h-413v-358q0 -53 -54 -53h-2q-53 0 -53 53v358h-412q-55 0 -55 54z" />
<glyph unicode="," horiz-adv-x="552" d="M31 -231q0 17 8 30l172 307q20 39 65 39h25q39 0 39 -30q0 -17 -12 -35l-189 -309q-24 -35 -65 -35q-43 0 -43 33z" />
<glyph unicode="-" horiz-adv-x="1112" d="M244 666v2q0 55 53 55h518q53 0 53 -55v-2q0 -54 -53 -54h-518q-53 0 -53 54z" />
<glyph unicode="." horiz-adv-x="552" d="M209 53v37q0 55 53 55h27q55 0 55 -55v-37q0 -53 -55 -53h-27q-53 0 -53 53z" />
<glyph unicode="/" horiz-adv-x="956" d="M84 37q0 6 8 26l660 1301q13 26 30.5 33.5t53.5 7.5t36 -33q0 -15 -8 -31l-663 -1302q-22 -39 -68 -39q-49 0 -49 37z" />
<glyph unicode="0" horiz-adv-x="1495" d="M147 698q0 187 44 328.5t125.5 229.5t190.5 132t245 44t244 -42.5t188 -129.5t123 -228.5t43 -331.5q0 -189 -44 -330t-125.5 -227t-190.5 -128t-245 -42q-135 0 -242.5 42t-188 128t-124 226.5t-43.5 328.5zM262 700q0 -323 124 -469.5t362 -146.5q239 0 362 147 t123 471q0 323 -123.5 471t-361.5 148q-486 0 -486 -621z" />
<glyph unicode="1" horiz-adv-x="876" d="M100 1235q0 38 43 55l267 105q101 37 129 37q67 0 67 -86v-1293q0 -53 -53 -53h-10q-56 0 -56 53v1260l-311 -121q-15 -6 -26 -6q-23 0 -36.5 14t-13.5 35z" />
<glyph unicode="2" d="M172 1108q15 46 45 90.5t78.5 87t109.5 75t143.5 52t174.5 19.5q233 0 371.5 -111t138.5 -307q0 -119 -58 -219t-194 -203l-637 -481h860q53 0 53 -56v-2q0 -53 -53 -53h-913q-31 0 -54 17.5t-31 44t5 59.5t49 61l623 480q131 100 179 181t48 167q0 149 -106.5 230 t-278.5 81q-180 0 -289.5 -68t-142.5 -166q-19 -54 -64 -54q-37 0 -54 31q-11 20 -3 44z" />
<glyph unicode="3" horiz-adv-x="1390" d="M123 1094q0 10 2 16q16 59 52.5 113t98 102.5t160 77.5t221.5 29q268 0 415 -101.5t147 -281.5q0 -241 -267 -330q301 -70 301 -352q0 -187 -157.5 -290.5t-419.5 -103.5q-58 0 -146.5 13.5t-179 36.5t-155 61.5t-64.5 81.5q0 23 16 44t37 21q16 0 37 -14 q87 -64 208 -98.5t249 -34.5q131 0 232.5 29.5t163 93t61.5 153.5q0 157 -120 225t-358 68h-108q-55 0 -55 56q0 51 55 51h115q196 0 314 81t118 203q0 130 -105 203.5t-327 73.5q-355 0 -422 -231q-12 -43 -52 -43q-31 0 -49 12.5t-18 34.5z" />
<glyph unicode="4" horiz-adv-x="1431" d="M80 424q0 17 8.5 35.5t16.5 29t27 31.5t24 27q110 119 329 358.5t330 358.5q39 42 60 63.5t61 49.5t68 28h34q32 0 43 -19t11 -53v-848h204q56 0 56 -59q0 -14 -3 -24t-11 -16t-14.5 -9.5t-20.5 -4.5t-21.5 -1.5t-26 0t-26.5 0.5h-137v-318q0 -53 -54 -53h-10 q-53 0 -53 53v318h-764q-9 0 -30 -0.5t-31.5 -0.5t-26.5 2.5t-23.5 7.5t-13.5 16.5t-6 27.5zM250 485h725v789z" />
<glyph unicode="5" horiz-adv-x="1380" d="M156 150q0 25 18 44t35 19q16 0 37 -14q162 -115 422 -115q209 0 327.5 85.5t118.5 244.5t-129 243t-354 84q-170 0 -303 -26q-8 -2 -25 -2q-27 0 -49 14l-6 4q-37 24 -37 64v557q0 17 7 28.5t17 17t27 8t30 2t34.5 -1.5t31.5 -1h762q54 0 54 -62q0 -18 -7.5 -30.5 t-18.5 -18t-29 -7.5t-31.5 -1.5t-35 1.5t-32.5 1h-696v-463q135 27 311 27q284 0 442 -114.5t158 -317.5q0 -205 -150.5 -326t-416.5 -121q-85 0 -200.5 20t-213.5 63t-98 94z" />
<glyph unicode="6" horiz-adv-x="1423" d="M147 696q0 193 44.5 336t127 229t192.5 127.5t249 41.5q93 0 171 -17t127.5 -41t88.5 -57t57.5 -59.5t30.5 -53.5q17 -38 -4 -66.5t-55 -27t-52 36.5q-42 84 -141 129t-231 45q-485 0 -488 -604q233 119 510 119q110 0 203 -25.5t164.5 -75t112 -130t40.5 -183.5 q0 -144 -72.5 -246t-197 -151.5t-287.5 -49.5q-134 0 -241 42.5t-185.5 128.5t-121 226t-42.5 326zM268 600q17 -267 136.5 -391.5t340.5 -124.5q201 0 317 86.5t116 243.5t-110 232t-298 75q-142 0 -272.5 -32.5t-229.5 -88.5z" />
<glyph unicode="7" horiz-adv-x="1318" d="M84 1348v4q0 53 55 53h1041q55 0 55 -53q0 -10 -5.5 -24t-15.5 -31t-19.5 -31t-23.5 -34.5t-20 -29.5l-766 -1165q-25 -37 -66 -37h-16q-47 0 -47 33q0 10 2 16q9 27 31.5 62t58 82t45.5 61l686 1038h-940q-55 0 -55 56z" />
<glyph unicode="8" horiz-adv-x="1460" d="M125 375q0 146 91.5 231.5t234.5 112.5q-129 43 -200 128.5t-71 201.5q0 181 142 281t409 100q264 0 405.5 -100.5t141.5 -280.5q0 -116 -70.5 -201.5t-197.5 -128.5q67 -13 123.5 -39t103 -66.5t72.5 -101.5t26 -137q0 -187 -164.5 -294.5t-439.5 -107.5t-440.5 107.5 t-165.5 294.5zM246 369q0 -93 67 -159t174 -96t242 -30t243 30t176.5 96t68.5 159q0 284 -486 284q-247 0 -366 -71t-119 -213zM303 1044q0 -123 115.5 -203.5t312.5 -80.5q195 0 309.5 80.5t114.5 203.5q0 135 -101 205t-323 70t-325 -70t-103 -205z" />
<glyph unicode="9" horiz-adv-x="1421" d="M125 985q0 211 153.5 329t413.5 118q277 0 429.5 -180.5t152.5 -551.5q0 -189 -43.5 -329t-126.5 -227t-196.5 -129t-258.5 -42q-119 0 -239.5 29.5t-194.5 73.5t-74 84q0 13 11 35l4 4q14 26 39 26q19 0 36 -14q172 -125 418 -125q503 0 506 594q-224 -111 -491 -111 q-116 0 -212 24.5t-170 73.5t-115.5 130t-41.5 188zM244 991q0 -158 113 -233.5t307 -75.5q135 0 266.5 32.5t222.5 84.5q-17 269 -131 395.5t-336 126.5q-216 0 -329 -89t-113 -241z" />
<glyph unicode=":" horiz-adv-x="552" d="M209 53v37q0 55 53 55h27q55 0 55 -55v-37q0 -53 -55 -53h-27q-53 0 -53 53zM209 975v37q0 53 53 53h27q55 0 55 -53v-37q0 -53 -55 -53h-27q-53 0 -53 53z" />
<glyph unicode=";" horiz-adv-x="552" d="M31 -231q0 8 2 14q3 9 11.5 25.5t10.5 21.5l103 184q9 15 26.5 46t26.5 46q20 39 65 39q23 0 34 -1.5t20.5 -8t9.5 -20.5q0 -5 -4 -17q-4 -9 -25 -47l-121 -196q-5 -8 -24 -42t-33.5 -51t-32.5 -22q-16 -4 -26 -4q-43 0 -43 33zM209 975v37q0 53 53 53h27q55 0 55 -53 v-37q0 -53 -55 -53h-27q-53 0 -53 53z" />
<glyph unicode="&#x3c;" d="M176 647v43q0 19 8.5 33.5t25.5 24.5t31 15.5t38.5 13t33.5 11.5l844 324q10 4 25 4q39 0 39 -51q0 -46 -43 -61q-98 -37 -407 -154t-478 -182l885 -334q43 -15 43 -64t-39 -49q-14 0 -34.5 6.5t-46.5 17.5t-38 15l-844 324q-43 15 -43 63z" />
<glyph unicode="=" d="M176 408v2q0 53 55 53h934q56 0 56 -53v-2q0 -56 -56 -56h-934q-55 0 -55 56zM176 915v3q0 53 55 53h934q56 0 56 -53v-3q0 -55 -56 -55h-934q-55 0 -55 55z" />
<glyph unicode="&#x3e;" d="M174 270q0 19 7.5 34t25 25t29.5 15t37 12.5t32 10.5l797 301l-885 336q-43 15 -43 61v12q0 41 35 41q14 0 29 -6q141 -51 291 -108.5t356.5 -138t290.5 -113.5q43 -12 43 -62v-43q0 -48 -43 -63q-142 -51 -289 -107t-361.5 -140t-287.5 -112q-10 -4 -25 -4q-39 0 -39 49 z" />
<glyph unicode="?" horiz-adv-x="1175" d="M96 1096q0 10 2 16q14 62 49 116.5t94 101.5t153.5 74.5t213.5 27.5t212.5 -30t150 -80.5t85.5 -113t29 -131.5q0 -57 -15 -106t-37 -84.5t-62 -72.5t-74.5 -62t-89.5 -60q-52 -33 -78 -52t-57.5 -49t-45.5 -59.5t-25 -73t-13 -100.5q-3 -53 -56 -53h-6q-25 0 -39 13 t-14 36q0 84 17.5 148.5t54 113.5t79 84.5t107.5 75.5q61 39 97 66t70 63t48.5 76t14.5 90q0 105 -88 177.5t-263 72.5q-328 0 -395 -229q-12 -43 -51 -43q-30 0 -49 12t-19 35zM461 53v37q0 55 55 55h27q53 0 53 -55v-37q0 -53 -53 -53h-27q-55 0 -55 53z" />
<glyph unicode="@" horiz-adv-x="1695" d="M102 532q0 140 24 250t79 200.5t142 150t217 92t300 32.5q729 0 729 -706q0 -215 -71 -311.5t-224 -96.5q-48 0 -81.5 7.5t-57.5 26t-39.5 38t-36.5 55.5q-49 -38 -67.5 -51t-58 -36.5t-77 -31.5t-83.5 -8q-328 0 -328 402q0 90 20.5 160t56 116t86 76t107.5 42.5 t125 12.5q79 0 149 -13.5t119.5 -44t49.5 -73.5v-407q0 -44 3.5 -68t16.5 -46.5t40.5 -31t74.5 -8.5q34 0 60 8t43.5 19t29 34t18 42t9.5 54.5t3.5 60t0.5 69.5q0 109 -19 198.5t-63.5 166.5t-114.5 129.5t-176 82t-244 29.5q-154 0 -268 -29t-187.5 -80t-118 -131 t-62 -171.5t-17.5 -211.5q0 -119 19 -211t66 -170t122.5 -128.5t191 -78.5t269.5 -28q88 0 154.5 11t105.5 24t155 55q10 4 25 4q34 0 45 -35q4 -16 4 -22q0 -45 -96 -80.5t-204.5 -50.5t-188.5 -15q-212 0 -363.5 48.5t-241.5 144.5t-131 227t-41 307zM592 545 q0 -156 51.5 -221.5t161.5 -65.5q42 0 76 8.5t66 29.5t49 35.5t52 47.5q10 9 15 14v400q-12 5 -36.5 16t-34.5 14.5t-30.5 9t-43 7.5t-52.5 2q-130 0 -202 -67t-72 -230z" />
<glyph unicode="A" horiz-adv-x="1259" d="M33 39q0 13 6 31l510 1294q20 53 86 53q62 0 82 -53l504 -1290q6 -18 6 -33q0 -25 -16.5 -40t-39.5 -15q-44 0 -61 45l-147 385h-668l-143 -375q-10 -25 -29 -38t-41 -13q-21 0 -35 12.5t-14 36.5zM338 526h582l-289 756z" />
<glyph unicode="B" horiz-adv-x="1380" d="M270 53v1299q0 53 56 53h352q534 0 534 -356q0 -128 -74.5 -213.5t-207.5 -118.5q72 -11 131 -35t106.5 -63.5t74 -102t26.5 -141.5q0 -200 -142.5 -287.5t-431.5 -87.5h-368q-56 0 -56 53zM387 113h307q242 0 349.5 59t107.5 199q0 280 -457 280h-307v-538zM387 762h303 q194 0 298 77t104 205q0 248 -414 248h-291v-530z" />
<glyph unicode="C" horiz-adv-x="1441" d="M102 700q0 149 51 284t139 233.5t212.5 156.5t263.5 58q226 0 366 -91.5t166 -226.5q1 -7 1 -13q1 -25 -19 -39q-24 -18 -55 -9.5t-41 37.5q-33 101 -136 166t-282 65q-155 0 -281 -83.5t-196 -225.5t-70 -312q0 -177 71.5 -317t205.5 -219.5t309 -79.5q99 0 184 15.5 t126.5 30.5t107.5 44q17 7 30 7q23 0 36 -20q10 -14 10 -29q0 -16 -11 -34q-12 -19 -35 -30q-55 -26 -101 -43t-141.5 -34.5t-205.5 -17.5q-206 0 -367 94t-249.5 259.5t-88.5 373.5z" />
<glyph unicode="D" horiz-adv-x="1550" d="M270 53v1299q0 53 56 53h336q179 0 322.5 -42.5t247.5 -127t160 -218t56 -308.5q0 -180 -57.5 -316.5t-163.5 -222t-249 -128t-319 -42.5h-333q-56 0 -56 53zM387 113h258q682 0 682 598q0 152 -49.5 265t-141 181.5t-214 101.5t-277.5 33h-258v-1179z" />
<glyph unicode="E" horiz-adv-x="1345" d="M270 53v1299q0 53 56 53h782q53 0 53 -57q0 -56 -53 -56h-721v-510h686q55 0 55 -55t-55 -55h-686v-559h758q55 0 55 -56q0 -57 -55 -57h-819q-56 0 -56 53z" />
<glyph unicode="F" horiz-adv-x="1224" d="M270 53v1299q0 53 56 53h741q53 0 53 -57q0 -56 -53 -56h-680v-522h574q53 0 53 -57q0 -56 -53 -56h-574v-604q0 -53 -53 -53h-8q-56 0 -56 53z" />
<glyph unicode="G" horiz-adv-x="1640" d="M102 700q0 150 50 284.5t138 233t215 156.5t273 58q98 0 184 -16.5t149 -43t115 -63t85.5 -73.5t56.5 -77q11 -20 10 -40t-14.5 -32.5t-29.5 -18t-36.5 3t-35.5 30.5q-68 99 -192.5 159t-291.5 60q-123 0 -228 -49t-176.5 -133t-112 -197.5t-40.5 -241.5 q0 -126 42 -238.5t117 -196t186 -132.5t241 -49q111 0 212 23t156.5 48t120.5 62v397h-440q-53 0 -53 54v4q0 55 53 55h500q53 0 53 -55v-619q0 -53 -53 -53t-53 53v47q-48 -26 -86.5 -43.5t-102 -39t-141 -33t-166.5 -11.5q-204 0 -366.5 98.5t-250.5 264t-88 364.5z" />
<glyph unicode="H" horiz-adv-x="1601" d="M270 53v1299q0 53 56 53h8q53 0 53 -53v-572h827v572q0 53 54 53h8q55 0 55 -53v-1299q0 -53 -55 -53h-8q-54 0 -54 53v615h-827v-615q0 -53 -53 -53h-8q-56 0 -56 53z" />
<glyph unicode="I" horiz-adv-x="657" d="M270 53v1299q0 53 56 53h8q53 0 53 -53v-1299q0 -53 -53 -53h-8q-56 0 -56 53z" />
<glyph unicode="J" horiz-adv-x="757" d="M33 51q0 26 14 45t33 19q20 0 74 -14.5t88 -14.5q76 0 112.5 36t36.5 118v1112q0 53 55 53h7q55 0 55 -53v-1119q0 -126 -66 -192t-198 -66q-46 0 -91 6t-82.5 24.5t-37.5 45.5z" />
<glyph unicode="K" horiz-adv-x="1327" d="M270 53v1299q0 53 56 53h8q53 0 53 -53v-682l680 733q24 27 49 27q24 0 41 -20t17 -44t-15 -39l-491 -514l587 -731q17 -24 17 -41q0 -24 -20.5 -41.5t-47.5 -17.5q-32 0 -51 24l-567 721l-199 -209v-465q0 -53 -53 -53h-8q-56 0 -56 53z" />
<glyph unicode="L" horiz-adv-x="1169" d="M270 53v1299q0 53 56 53h8q53 0 53 -53v-1239h688q53 0 53 -56v-4q0 -53 -53 -53h-749q-56 0 -56 53z" />
<glyph unicode="M" horiz-adv-x="1863" d="M266 66v1282q0 37 31 59.5t72 22.5q65 0 92 -52l471 -843l473 843q27 52 92 52q39 0 69.5 -23t30.5 -59v-1282q0 -35 -12.5 -50.5t-40.5 -15.5h-8q-28 0 -40.5 16t-12.5 52v1218l-471 -850q-23 -47 -80 -47q-54 0 -78 47l-471 850v-1218q0 -68 -53 -68h-8q-56 0 -56 66z " />
<glyph unicode="N" horiz-adv-x="1644" d="M270 53v1309q0 25 19 40t45 15q35 0 53 -24l870 -1178v1137q0 53 56 53h6q53 0 53 -53v-1299q0 -28 -16.5 -44.5t-40.5 -16.5q-37 0 -64 37l-866 1169v-1145q0 -53 -53 -53h-6q-56 0 -56 53z" />
<glyph unicode="O" horiz-adv-x="1660" d="M102 700q0 148 57.5 283.5t155 234t231.5 156.5t281 58q148 0 283.5 -58t234 -156.5t156.5 -234t58 -283.5q0 -147 -58 -281.5t-156.5 -232t-234 -155.5t-283.5 -58q-196 0 -363 98t-264.5 265.5t-97.5 363.5zM221 700q0 -166 81 -308t220.5 -225t304.5 -83 q126 0 239.5 49t194.5 132t129 196.5t48 238.5q0 126 -48 241t-129 198t-194.5 132.5t-239.5 49.5q-165 0 -304.5 -83.5t-220.5 -226.5t-81 -311z" />
<glyph unicode="P" horiz-adv-x="1363" d="M270 53v1299q0 53 56 53h333q268 0 421 -114.5t153 -338.5q0 -102 -32.5 -181t-85 -128.5t-127.5 -81t-153 -43.5t-167 -12q-112 0 -281 22v-475q0 -53 -53 -53h-8q-56 0 -56 53zM387 641q145 -23 285 -23q80 0 144 9.5t120.5 33t94.5 61t59.5 96t21.5 134.5 q0 173 -123 256.5t-330 83.5h-272v-651z" />
<glyph unicode="Q" horiz-adv-x="1660" d="M102 700q0 148 57.5 283.5t155 234t231.5 156.5t281 58q148 0 283.5 -58t234 -156.5t156.5 -234t58 -283.5q0 -250 -154 -444.5t-391 -255.5l200 -274q13 -20 13 -35q0 -21 -15.5 -34t-37.5 -13q-41 0 -60 30q-194 277 -213 303q-50 -4 -74 -4q-196 0 -363 98 t-264.5 265.5t-97.5 363.5zM221 700q0 -166 81 -308t220.5 -225t304.5 -83q126 0 239.5 49t194.5 132t129 196.5t48 238.5q0 126 -48 241t-129 198t-194.5 132.5t-239.5 49.5q-165 0 -304.5 -83.5t-220.5 -226.5t-81 -311z" />
<glyph unicode="R" horiz-adv-x="1368" d="M270 53v1299q0 53 56 53h299q295 0 441 -104t146 -322q0 -164 -90 -265t-243 -132l335 -504q11 -16 11 -35q0 -23 -18 -39t-42 -16q-36 0 -61 41l-344 528q-111 -6 -164 -6q-66 0 -209 10v-508q0 -53 -53 -53h-8q-56 0 -56 53zM387 674q177 -10 221 -10q245 0 364.5 75 t119.5 238q0 76 -24.5 132.5t-65 91t-103 55.5t-128.5 28.5t-150 7.5h-234v-618z" />
<glyph unicode="S" horiz-adv-x="1318" d="M158 174q0 22 18.5 42t34.5 20q19 0 37 -15q94 -70 192 -102.5t230 -32.5q171 0 263.5 71t92.5 197q0 57 -29 102t-77.5 74t-112 53.5t-133.5 46t-140 45t-133.5 57t-112 76t-77.5 107t-29 146.5q0 173 133.5 272t341.5 99q89 0 165.5 -21t127 -52.5t89 -73t58 -78.5 t29.5 -72q5 -16 5 -29q0 -24 -15 -40q-23 -24 -56 -15t-44 45q-27 98 -119 161.5t-248 63.5q-163 0 -253.5 -65t-90.5 -187q0 -65 29 -116t77.5 -84t112 -59t133.5 -47.5t140 -44t133.5 -52.5t112 -69t77.5 -99t29 -136q0 -183 -131 -285t-354 -102q-117 0 -235 28.5 t-194.5 75.5t-76.5 95z" />
<glyph unicode="T" horiz-adv-x="1220" d="M84 1348v4q0 53 55 53h942q56 0 56 -53v-4q0 -56 -56 -56h-413v-1239q0 -53 -54 -53h-8q-55 0 -55 53v1239h-412q-55 0 -55 56z" />
<glyph unicode="U" horiz-adv-x="1492" d="M242 485v867q0 53 53 53h8q53 0 53 -53v-865q0 -407 396 -407q88 0 155.5 20t111.5 55t71.5 87t39 111.5t11.5 133.5v865q0 53 53 53h4q55 0 55 -53v-867q0 -115 -27 -206t-85 -161t-156.5 -107.5t-232.5 -37.5q-111 0 -197.5 25t-145 69.5t-96.5 109.5t-54.5 140.5 t-16.5 167.5z" />
<glyph unicode="V" horiz-adv-x="1421" d="M70 1378q0 24 16 39t39 15q40 0 57 -41l529 -1270l528 1270q17 41 55 41q23 0 39.5 -15.5t16.5 -40.5q0 -13 -7 -30l-550 -1319q-24 -54 -82 -54q-61 0 -82 54l-551 1319q-8 16 -8 32z" />
<glyph unicode="W" horiz-adv-x="1990" d="M82 1368q0 27 18.5 45.5t42.5 18.5q42 0 56 -50l354 -1253l352 1233q9 32 34 51t54 19q30 0 55 -18.5t35 -51.5l355 -1235l354 1255q14 50 61 50q22 0 39 -14.5t17 -39.5q0 -6 -4 -22l-369 -1303q-10 -38 -37 -59t-61 -21q-29 0 -54.5 15.5t-33.5 44.5l-357 1245 l-352 -1237q-9 -32 -34 -50t-56 -18t-54 16.5t-32 47.5l-379 1309q-4 16 -4 22z" />
<glyph unicode="X" horiz-adv-x="1337" d="M92 23q0 16 17 40l495 660l-446 614q-17 20 -17 41q0 22 16 38t38 16q37 0 69 -43l422 -580l434 586q27 37 62 37q21 0 35 -14.5t14 -35.5q0 -18 -12 -36l-467 -629l475 -647q16 -21 16 -45q0 -22 -15.5 -37t-37.5 -15q-39 0 -64 37l-454 621l-467 -621q-27 -37 -64 -37 q-21 0 -35 14.5t-14 35.5z" />
<glyph unicode="Y" horiz-adv-x="1247" d="M84 1378q0 23 15.5 38.5t37.5 15.5q33 0 53 -35l433 -721l434 719q21 37 57 37q21 0 36 -14.5t15 -35.5q0 -18 -12 -36l-473 -787v-506q0 -53 -53 -53h-9q-53 0 -53 53v506l-471 782q-10 15 -10 37z" />
<glyph unicode="Z" horiz-adv-x="1251" d="M122 50q-4 15 -4 29q0 35 25 68l832 1147h-782q-54 0 -54 58q0 53 54 53h831q60 0 78 -48q6 -16 6 -32q0 -31 -23 -63l-829 -1151h825q56 0 56 -56q0 -55 -56 -55h-884q-60 0 -75 50z" />
<glyph unicode="[" horiz-adv-x="770" d="M270 -408v1860q0 53 56 53h305q53 0 53 -53q0 -57 -53 -57h-248v-1747h248q53 0 53 -54q0 -55 -53 -55h-305q-56 0 -56 53z" />
<glyph unicode="\" horiz-adv-x="956" d="M84 1368q0 37 49 37q21 1 37 -7.5t29 -26.5t21 -34t19.5 -42.5t18.5 -39.5l606 -1192q8 -20 8 -26q0 -17 -12.5 -27t-34.5 -10q-47 0 -69 39l-664 1302q-8 20 -8 27z" />
<glyph unicode="]" horiz-adv-x="770" d="M86 -408q0 56 55 56h246v1747h-246q-55 0 -55 55t55 55h305q54 0 54 -53v-1860q0 -53 -54 -53h-305q-55 0 -55 53z" />
<glyph unicode="^" d="M156 737q0 11 2 15q6 18 22.5 42t42.5 56t33 41q53 72 172 232.5t182 246.5q24 35 66 35h35q42 0 65 -33l361 -481q8 -11 33.5 -41.5t43 -55t23.5 -42.5q4 -8 4 -15q0 -32 -55 -32q-16 0 -29.5 5t-25.5 16.5t-19.5 20.5t-20.5 26.5t-20 25.5l-377 504l-372 -502 q-7 -9 -24 -32t-26 -33.5t-26.5 -20.5t-36.5 -10q-53 0 -53 32z" />
<glyph unicode="_" horiz-adv-x="1409" d="M74 -78q0 53 55 53h1147q55 0 55 -53v-2q0 -55 -55 -55h-1147q-55 0 -55 55v2z" />
<glyph unicode="`" horiz-adv-x="1003" d="M348 1470q0 20 14.5 34t36.5 14q34 0 56 -31l188 -227q12 -15 12 -35q0 -19 -12.5 -32t-32.5 -13q-24 0 -45 24l-203 232q-14 17 -14 34z" />
<glyph unicode="a" horiz-adv-x="1153" d="M139 285q0 91 37 155t104.5 98.5t147.5 49t182 14.5t221 -14v180q0 104 -64.5 159.5t-186.5 55.5q-95 0 -157.5 -39.5t-113.5 -126.5q-17 -29 -49 -29q-22 0 -39.5 14t-17.5 34q0 6 4 18q38 108 135.5 172t241.5 64q362 0 362 -330v-588q0 -53 17.5 -77.5t56.5 -24.5 q19 0 49.5 15t36.5 15q17 0 29 -13t12 -38q0 -33 -48.5 -53.5t-97.5 -20.5q-71 0 -112.5 39t-50.5 127q-66 -68 -168 -117t-211 -49q-144 0 -232 82t-88 228zM254 285q0 -205 217 -205q103 0 196 48.5t164 133.5v219q-119 17 -223 17q-64 0 -114.5 -5.5t-96.5 -19.5 t-76.5 -37.5t-48.5 -61.5t-18 -89z" />
<glyph unicode="b" horiz-adv-x="1318" d="M244 150v1310q0 26 16 41t39 15q24 0 40.5 -14.5t16.5 -41.5v-477q97 58 155 78q85 29 179 29q157 0 274 -75.5t175.5 -201t58.5 -281.5q0 -154 -65.5 -281.5t-185.5 -202.5t-271 -75q-108 0 -212.5 27t-172.5 74q-47 35 -47 76zM356 158q43 -30 128.5 -55t191.5 -25 q122 0 214.5 61.5t140.5 164t48 228.5q0 194 -104 322.5t-285 128.5q-107 0 -185 -30t-149 -83v-712z" />
<glyph unicode="c" horiz-adv-x="1165" d="M121 532q0 154 64 281t183.5 202t270.5 75t248.5 -67t134.5 -181q7 -25 1 -45t-22 -29.5t-34 -10.5t-35 11.5t-25 36.5q-10 29 -29 57.5t-50 57t-80 46t-109 17.5q-182 0 -290.5 -129.5t-108.5 -321.5q0 -194 108.5 -324t290.5 -130q75 0 142 17.5t99.5 34t71.5 42.5 q20 13 40 14t32 -9q12 -11 18 -25q3 -7 3 -14q1 -8 -3 -18q-6 -18 -26 -32q-161 -115 -377 -115q-151 0 -270.5 75.5t-183.5 202.5t-64 281z" />
<glyph unicode="d" horiz-adv-x="1335" d="M123 532q0 156 58.5 281.5t172.5 201t264 75.5q200 0 345 -78v448q0 26 17 41t40 15q24 0 40.5 -14.5t16.5 -41.5v-1288q0 -92 101 -92q20 0 56 11t48 11q16 0 25.5 -14t9.5 -39q0 -26 -26 -44t-60 -25t-70 -7q-168 0 -192 150q-46 -55 -142.5 -102.5t-208.5 -47.5 q-150 0 -264 75.5t-172.5 201.5t-58.5 282zM242 532q0 -128 41 -228.5t127.5 -162t207.5 -61.5q110 0 198.5 47t146.5 117v653q-148 86 -345 86q-121 0 -207.5 -62t-127.5 -162t-41 -227z" />
<glyph unicode="e" horiz-adv-x="1202" d="M121 532q0 163 54 287.5t163 197.5t260 73q116 0 209.5 -36t152.5 -97.5t90 -140t31 -165.5v-57q0 -53 -53 -53h-788q0 -129 45.5 -232t137.5 -166t216 -63q77 0 146.5 14t109 31t72.5 31t45 14q19 0 32 -15.5t13 -39.5q0 -32 -67.5 -65.5t-165.5 -55t-185 -21.5 q-151 0 -270.5 75.5t-183.5 202.5t-64 281zM250 645h713q0 157 -98.5 247.5t-266.5 90.5q-284 0 -348 -338z" />
<glyph unicode="f" horiz-adv-x="604" d="M-96 -377q0 25 15.5 41.5t33.5 16.5q23 0 64.5 -12.5t66.5 -12.5q154 0 154 149v1158h-154q-53 0 -53 55q0 47 53 47h156v92q0 184 80 266t243 82q26 0 41 -0.5t41.5 -2t42.5 -5.5t33 -10.5t25 -18t8 -26.5q0 -56 -45 -56q-23 0 -69.5 8.5t-78.5 8.5q-118 0 -164.5 -53 t-46.5 -193v-92h285q51 0 51 -45q0 -57 -59 -57h-277v-1166q0 -124 -71.5 -187t-192.5 -63q-29 0 -56 3t-58 10t-49.5 23.5t-18.5 39.5z" />
<glyph unicode="g" horiz-adv-x="1239" d="M121 532q0 155 59 281t173.5 201.5t264.5 75.5q28 0 55.5 -2.5t49.5 -5.5t46 -9.5t39.5 -11t36.5 -14.5t31 -14t29 -15.5t24 -14.5t22 -14t18 -12v27q0 28 12.5 40.5t42.5 12.5q53 0 53 -53v-998q0 -228 -122.5 -343.5t-350.5 -115.5q-105 0 -209 22.5t-167.5 55.5 t-63.5 64q0 25 14 41t33 16q26 0 83.5 -23t140 -46t169.5 -23q183 0 271 83.5t88 268.5v98q-141 -131 -345 -131q-150 0 -264.5 75.5t-173.5 202t-59 281.5zM240 532q0 -197 99 -324.5t279 -127.5q43 0 81 5t70 17.5t53.5 21.5t47.5 29.5t35.5 28.5t32.5 31l25 25v626 q-3 2 -44 27t-61.5 34t-62 26.5t-85 24.5t-92.5 7q-180 0 -279 -128t-99 -323z" />
<glyph unicode="h" horiz-adv-x="1296" d="M244 53v1407q0 26 16 41t39 15q24 0 40.5 -14.5t16.5 -41.5v-473q190 103 359 103q186 0 276 -85t90 -272v-680q0 -53 -53 -53h-6q-55 0 -55 53v670q0 138 -65.5 199t-199.5 61q-91 0 -183.5 -29.5t-162.5 -74.5v-826q0 -53 -53 -53h-6q-53 0 -53 53z" />
<glyph unicode="i" horiz-adv-x="600" d="M244 53v959q0 53 53 53h6q53 0 53 -53v-959q0 -53 -53 -53h-6q-53 0 -53 53zM244 1378v82q0 56 53 56h6q53 0 53 -56v-82q0 -53 -53 -53h-6q-53 0 -53 53z" />
<glyph unicode="j" horiz-adv-x="600" d="M-133 -377q0 29 16 45.5t35 16.5q22 0 74.5 -12.5t77.5 -12.5q74 0 124 32.5t50 108.5v1211q0 53 53 53h6q53 0 53 -53v-1121q0 -182 -65 -263t-219 -81q-71 0 -138 18.5t-67 57.5zM244 1378v82q0 56 53 56h6q53 0 53 -56v-82q0 -53 -53 -53h-6q-53 0 -53 53z" />
<glyph unicode="k" horiz-adv-x="1091" d="M244 53v1407q0 26 16 41t39 15q24 0 40.5 -14.5t16.5 -41.5v-930l562 529q20 20 47 20q23 0 39 -15.5t16 -37.5q0 -25 -25 -47l-377 -346l429 -559q14 -20 14 -39q0 -23 -16.5 -38t-38.5 -15q-30 0 -50 26l-417 551l-183 -166v-340q0 -53 -53 -53h-6q-53 0 -53 53z" />
<glyph unicode="l" horiz-adv-x="659" d="M244 219v1241q0 26 16 41t39 15q24 0 40.5 -14.5t16.5 -41.5v-1233q0 -147 97 -147q44 0 87.5 18.5t53.5 18.5q20 0 33.5 -15.5t13.5 -40.5q0 -36 -68.5 -62t-128.5 -26q-101 0 -150.5 64t-49.5 182z" />
<glyph unicode="m" horiz-adv-x="1984" d="M240 53v959q0 53 53 53h6q51 0 51 -53v-54q167 132 361 132q234 0 309 -148q122 80 203 114t194 34q176 0 264 -89.5t88 -277.5v-670q0 -53 -53 -53h-6q-55 0 -55 53v660q0 142 -59 206t-193 64q-67 0 -137.5 -24t-109 -46.5t-95.5 -60.5v-799q0 -53 -53 -53h-7 q-53 0 -53 53v660q0 147 -53 208.5t-199 61.5q-30 0 -58.5 -3.5t-49 -7.5t-48 -14.5t-40.5 -15.5t-41 -21.5t-35 -21t-37.5 -24.5t-34.5 -23v-799q0 -53 -53 -53h-6q-53 0 -53 53z" />
<glyph unicode="n" horiz-adv-x="1292" d="M240 53v959q0 28 11 40.5t38 12.5h6q51 0 51 -53v-54q63 47 158 89.5t194 42.5q103 0 177.5 -27t118 -77.5t63.5 -115.5t20 -147v-670q0 -53 -53 -53h-6q-55 0 -55 53v660q0 134 -73 202t-192 68q-167 0 -346 -131v-799q0 -53 -53 -53h-6q-53 0 -53 53z" />
<glyph unicode="o" horiz-adv-x="1318" d="M121 532q0 153 69.5 281t192.5 202.5t274 74.5q114 0 214.5 -44t172 -119t113 -178t41.5 -217q0 -153 -70 -281t-194.5 -203t-276.5 -75q-151 0 -274 75t-192.5 203t-69.5 281zM240 532q0 -191 117 -321.5t300 -130.5q122 0 219.5 61t150 164t52.5 227q0 189 -119 320 t-303 131q-121 0 -217 -61t-148 -163.5t-52 -226.5z" />
<glyph unicode="p" horiz-adv-x="1318" d="M244 -395v1407q0 28 11 40.5t38 12.5h6q26 0 36.5 -12.5t10.5 -40.5v-54q32 24 76.5 50t128 54t160.5 28q150 0 262 -75.5t168.5 -201t56.5 -281.5q0 -155 -60 -281.5t-175.5 -202t-266.5 -75.5q-100 0 -171.5 18t-168.5 58v-444q0 -58 -57 -58q-55 0 -55 58zM356 164 q97 -44 168.5 -64t171.5 -20q121 0 209.5 61.5t131 162.5t42.5 228t-39.5 227t-124 162t-204.5 62q-59 0 -116.5 -13.5t-107.5 -39.5t-74 -40.5t-57 -37.5v-688z" />
<glyph unicode="q" horiz-adv-x="1318" d="M121 532q0 156 58.5 281.5t172.5 201t264 75.5q28 0 55.5 -2.5t49.5 -5.5t46 -9.5t39.5 -11t36.5 -14.5t31 -14t29 -15.5t24 -14.5t22 -14t18 -12v45q0 43 49 43h6q53 0 53 -53v-1407q0 -58 -57 -58q-24 0 -40.5 14t-16.5 44v499q-56 -52 -144.5 -91.5t-200.5 -39.5 q-150 0 -264 75.5t-172.5 201.5t-58.5 282zM240 532q0 -128 41 -228.5t127.5 -162t207.5 -61.5q64 0 119 14t98 41t65 45.5t54 48.5l3 3l3 3l3 3v626q-3 2 -44 27t-61.5 34t-62 26.5t-85 24.5t-92.5 7q-121 0 -207.5 -62t-127.5 -162t-41 -227z" />
<glyph unicode="r" horiz-adv-x="929" d="M244 53v959q0 53 53 53h6q26 0 37.5 -12.5t11.5 -40.5v-60q55 55 131 96.5t146 41.5q103 0 164 -59.5t61 -135.5q0 -47 -59 -47q-17 0 -29 14t-21.5 34t-23 39.5t-41.5 33.5t-68 14q-64 0 -136.5 -40t-119.5 -99v-791q0 -53 -53 -53h-6q-53 0 -53 53z" />
<glyph unicode="s" horiz-adv-x="1067" d="M147 145q0 17 13.5 37.5t32.5 20.5q18 0 38 -17q65 -55 127.5 -81.5t149.5 -26.5q128 0 209.5 49t81.5 137q0 47 -27 83t-71.5 58.5t-101.5 44.5t-116.5 40t-116.5 46t-101.5 61t-71.5 86.5t-27 121.5q0 133 100 209t256 76q168 0 270.5 -75t102.5 -186 q0 -20 -12.5 -32.5t-34.5 -12.5q-27 0 -41 9t-23 34q-51 156 -262 156q-107 0 -172 -43t-65 -129q0 -50 27 -89t71 -62.5t100.5 -46t115.5 -40t115.5 -44t100.5 -58t71 -83.5t27 -118q0 -142 -116 -219.5t-293 -77.5q-76 0 -145.5 18.5t-114 46t-71 56.5t-26.5 51z" />
<glyph unicode="t" horiz-adv-x="778" d="M59 1014q0 51 56 51h131v248q0 28 12 42.5t43 14.5q53 0 53 -57v-248h267q24 0 37.5 -13.5t13.5 -37.5t-13.5 -37.5t-37.5 -13.5h-267v-732q0 -83 27.5 -115t95.5 -32q90 0 154 55q11 8 28 8q19 0 32.5 -16.5t13.5 -40.5q0 -43 -73.5 -80t-156.5 -37q-123 0 -178 59.5 t-55 180.5v750h-127q-56 0 -56 51z" />
<glyph unicode="u" horiz-adv-x="1249" d="M215 379v633q0 53 53 53h6q56 0 56 -53v-629q0 -143 79.5 -223t215.5 -80q135 0 215 80t80 223v629q0 53 53 53h6q55 0 55 -53v-633q0 -183 -110 -294.5t-299 -111.5q-193 0 -301.5 111t-108.5 295z" />
<glyph unicode="v" horiz-adv-x="1142" d="M41 1036q0 23 15.5 38.5t37.5 15.5q41 0 60 -41l417 -936l418 934q19 43 55 43q22 0 39 -17t17 -41q0 -13 -6 -28l-441 -975q-26 -56 -82 -56q-53 0 -82 56l-440 977q-8 20 -8 30z" />
<glyph unicode="w" horiz-adv-x="1630" d="M33 1038q0 24 16 38t39 14q42 0 53 -35l277 -936l319 921q16 50 78 50q28 0 49.5 -13.5t28.5 -36.5l319 -921l277 936q11 35 53 35q22 0 38.5 -14t16.5 -38q0 -13 -6 -28l-299 -987q-14 -50 -69 -50q-26 0 -48 12t-30 35l-330 928l-330 -928q-17 -47 -75 -47 q-24 0 -44.5 13t-27.5 37l-299 987q-6 15 -6 28z" />
<glyph unicode="x" horiz-adv-x="1140" d="M104 27q0 15 17 39l381 469l-373 458q-18 21 -18 43q0 23 15.5 38.5t37.5 15.5q25 0 45 -23l364 -449l355 443q23 29 51 29q22 0 36.5 -15t14.5 -37q0 -24 -18 -45l-371 -456l381 -471q14 -17 14 -37q0 -23 -16.5 -39.5t-38.5 -16.5q-23 0 -41 21l-371 459l-370 -459 q-18 -21 -41 -21q-22 0 -38 15.5t-16 38.5z" />
<glyph unicode="y" horiz-adv-x="1120" d="M-33 -414q0 21 13.5 39.5t35.5 18.5q10 0 42.5 -8.5t68.5 -8.5q56 0 105.5 23t85 56.5t74 95t64 113.5t62.5 136l-426 955q-6 18 -6 30q0 25 15 39.5t38 14.5q43 0 62 -43l374 -863l369 865q17 41 60 41q21 0 37 -14t16 -38q0 -15 -6 -30l-424 -973q-89 -202 -142 -285 q-114 -180 -271 -216q-45 -11 -95 -11q-70 0 -111 16t-41 47z" />
<glyph unicode="z" horiz-adv-x="1091" d="M111 49q0 32 20 55l678 857h-633q-53 0 -53 55q0 49 53 49h733q28 0 43 -15t15 -38q0 -29 -19 -51l-672 -857h652q55 0 55 -55q0 -49 -55 -49h-762q-28 0 -41.5 13.5t-13.5 35.5z" />
<glyph unicode="{" horiz-adv-x="827" d="M39 528q0 20 27 34.5t65 27.5t76 30t65 51.5t27 82.5v391q0 202 78 290.5t252 88.5q31 0 51 -1.5t49 -6.5t44 -18t15 -34q0 -51 -45 -51q-17 0 -56 4t-56 4q-100 0 -160.5 -42t-60.5 -136v-391q0 -57 -2.5 -93.5t-12 -78t-27.5 -68t-50.5 -50t-79.5 -36.5q84 -23 128 -83 t44 -146v-485q0 -95 60.5 -137t160.5 -42q16 0 53 3.5t55 3.5q49 0 49 -56q0 -19 -15.5 -30.5t-45 -16t-48.5 -5.5t-50 -1q-67 0 -124.5 16.5t-104.5 49t-74 88t-27 127.5v487q0 158 -207 176q-53 3 -53 53z" />
<glyph unicode="|" horiz-adv-x="653" d="M270 -408v1860q0 53 56 53h4q53 0 53 -53v-1860q0 -53 -53 -53h-4q-56 0 -56 53z" />
<glyph unicode="}" horiz-adv-x="827" d="M39 -412q0 54 45 54q17 0 55.5 -4.5t57.5 -4.5q100 0 160.5 42t60.5 137v485q0 86 44 146t128 83q-47 13 -79.5 36.5t-50.5 50t-27.5 68t-12 78t-2.5 93.5v391q0 94 -60.5 136t-160.5 42q-19 0 -56 -4t-53 -4q-49 0 -49 55q0 56 160 56q174 0 251.5 -88.5t77.5 -290.5 v-391q0 -44 27 -77t65 -51.5t76 -32.5t65 -30t27 -35q0 -50 -53 -53q-207 -18 -207 -176v-487q0 -72 -27 -127.5t-74 -88t-104.5 -49t-123.5 -16.5h-33t-33.5 1.5t-36.5 5t-27.5 9.5t-22.5 16.5t-7 24.5z" />
<glyph unicode="~" d="M160 618q0 11 2 15q35 67 105 101t165 34q86 0 277.5 -48t248.5 -48q33 0 59.5 5.5t46.5 16t31.5 19t26.5 22.5t19 17q17 14 30 14q24 0 44 -16t20 -35q0 -11 -2 -15q-32 -64 -105.5 -100.5t-166.5 -36.5q-78 0 -269.5 48t-255.5 48q-51 0 -90.5 -14.5t-57.5 -31.5 t-35 -31.5t-30 -14.5q-22 0 -42.5 15.5t-20.5 35.5z" />
<glyph unicode="&#xa1;" horiz-adv-x="661" d="M258 975v37q0 53 55 53h27q53 0 53 -53v-37q0 -53 -53 -53h-27q-55 0 -55 53zM268 -293l4 991q0 54 56 54h2q53 0 53 -54l4 -991q0 -55 -53 -55h-10q-56 0 -56 55z" />
<glyph unicode="&#xa2;" horiz-adv-x="1355" d="M147 672q0 257 124 392.5t356 156.5v231q0 53 53 53q17 0 28.5 -6t17 -13.5t8 -23.5t2.5 -26t-0.5 -31.5t-0.5 -30.5v-149q187 -7 300.5 -83t140.5 -186q0 -2 1 -6t1 -6q0 -20 -16 -33.5t-38 -13.5h-10q-9 0 -28 22t-49.5 54.5t-72.5 64.5t-111 55t-151 23 q-101 0 -176 -21t-135.5 -70t-91.5 -137.5t-31 -215.5q0 -124 34 -212t98 -137.5t144.5 -71.5t184.5 -22q155 0 295 52q48 18 84 36q4 2 14 2q18 0 32.5 -18t14.5 -45q0 -32 -69.5 -63t-170 -50.5t-194.5 -21.5v-164q0 -9 0.5 -30.5t0.5 -32t-2.5 -26.5t-8 -24t-17 -14 t-28.5 -6t-28 6.5t-16.5 15t-8 24.5t-2.5 27.5t1 31.5t1 30v168q-225 24 -352.5 158.5t-127.5 386.5z" />
<glyph unicode="&#xa3;" d="M35 692q0 13 3.5 22t11.5 14.5t15 9t22 4.5t23 1.5t26.5 0t25.5 -0.5h147q-2 23 -8.5 77t-10 94t-3.5 77q0 71 15 132.5t52.5 119.5t95 99t149.5 65.5t210 24.5q119 0 212.5 -27.5t151.5 -75.5t91.5 -102.5t46.5 -116.5q2 -6 2 -16q0 -20 -15.5 -32.5t-40.5 -12.5 q-4 -2 -12 -2q-39 0 -51 43q-10 38 -25 68t-44.5 62t-70.5 53t-106 34.5t-149 13.5q-396 0 -396 -328q0 -37 3.5 -78.5t10 -93t9.5 -78.5h606q53 0 53 -55q0 -49 -53 -49h-598q2 -22 8.5 -78t9.5 -95.5t3 -76.5q0 -88 -37.5 -153.5t-116.5 -122.5h832q10 0 31.5 1t34 1 t29.5 -2.5t26.5 -8t16.5 -17.5t7 -30q0 -57 -53 -57h-1000q-10 0 -31 -1t-34 -1.5t-30 2t-26.5 8t-16.5 17t-7 28.5q0 32 41 53q217 124 217 293q0 45 -9.5 132.5t-11.5 107.5h-153q-9 0 -29.5 -0.5t-31 -0.5t-26 2.5t-23 7.5t-13.5 16.5t-6 27.5z" />
<glyph unicode="&#xa4;" d="M84 254q0 14 12 28.5t25.5 24t37.5 25t34 22.5l124 90q-88 95 -88 224q0 130 88 225l-124 88q-8 6 -26.5 18t-30 20t-25 19.5t-20.5 22t-7 20.5q0 21 21.5 43.5t39.5 22.5q25 0 125 -78l138 -96q121 78 290 78q172 0 293 -78l137 96q3 3 22.5 18t29 22t25.5 17.5 t27.5 15.5t20.5 5q21 0 40.5 -23t19.5 -45q0 -17 -16.5 -33t-49.5 -37t-41 -28l-125 -88q88 -98 88 -225q0 -126 -88 -224l125 -90q3 -2 25.5 -16.5t31 -20.5t23.5 -18.5t21 -22.5t6 -20q0 -20 -20.5 -43t-39.5 -23q-25 0 -70 28.5t-113.5 82.5t-78.5 61q-121 -75 -293 -75 q-169 0 -290 75l-138 -96q-7 -5 -23.5 -18t-28 -21t-26 -17.5t-26.5 -14.5t-21 -5q-19 0 -40 23t-21 41zM350 668q0 -119 94.5 -194t253.5 -75q160 0 255.5 75t95.5 194q0 120 -95 195t-256 75q-159 0 -253.5 -75t-94.5 -195z" />
<glyph unicode="&#xa5;" d="M76 1372q0 19 14.5 26t46.5 7q40 0 66 -33q96 -118 270 -334t227 -282q64 78 212.5 264t230.5 285q4 5 16 21.5t18 24t18 20t21 18.5t22 11t26 5q57 0 57 -33q0 -9 -8 -23t-16 -24t-23.5 -28.5t-20.5 -24.5l-424 -531h324q8 0 26 0.5t27.5 0.5t24 -1t22.5 -4.5t16.5 -9.5 t12.5 -16.5t4 -24.5q0 -45 -53 -45h-477v-588q0 -29 -14.5 -41t-47.5 -12q-17 0 -28 6.5t-16.5 15.5t-8 25.5t-2.5 28t1 32.5t1 31v502h-475q-53 0 -53 53q0 12 3.5 20.5t12.5 13.5t17 8t23 4t24 1.5t28 0t27 -0.5h319l-477 598q-14 17 -14 33z" />
<glyph unicode="&#xa6;" horiz-adv-x="653" d="M270 270q0 56 56 56h4q53 0 53 -56v-678q0 -53 -53 -53h-4q-56 0 -56 53v678zM270 772v680q0 53 56 53h4q53 0 53 -53v-680q0 -53 -53 -53h-4q-56 0 -56 53z" />
<glyph unicode="&#xa7;" horiz-adv-x="1464" d="M147 791q0 136 119 235q-8 36 -8 70q0 85 41 151t108.5 105t147 58.5t164.5 19.5q109 0 196.5 -25.5t142.5 -68t88.5 -91t47.5 -102.5q2 -6 2 -19q0 -45 -57 -45q-37 0 -52 41q-19 43 -36 70q-104 137 -340 137q-147 0 -245.5 -62t-98.5 -165q0 -61 52.5 -110t137 -83 t186.5 -65t204 -65t186.5 -74.5t137 -102t52.5 -139.5q0 -136 -127 -219q12 -30 12 -76q0 -87 -39.5 -153.5t-109 -106.5t-159 -60t-195.5 -20q-56 0 -138.5 13t-166 35t-142.5 59t-59 79q0 18 14.5 37t32.5 19q1 0 16 -5q17 -5 56 -31t57 -34q153 -72 336 -72 q172 0 278.5 59.5t106.5 166.5q0 50 -41 92.5t-107.5 72t-152 60t-174 56.5t-174 61.5t-152 74.5t-107.5 96t-41 126zM256 809q0 -72 68.5 -127.5t178 -94t225.5 -72.5t232.5 -81.5t176.5 -103.5q73 54 73 121q0 59 -56 108.5t-141.5 81.5t-192.5 66.5t-204.5 63t-182 71 t-120.5 90.5q-57 -49 -57 -123z" />
<glyph unicode="&#xa8;" horiz-adv-x="1003" d="M244 1350q0 41 10 58t43 17h6q33 0 43 -17t10 -58q0 -42 -10 -60t-43 -18h-6q-33 0 -43 18t-10 60zM645 1350q0 41 10 58t43 17h7q33 0 43 -17t10 -58q0 -42 -10 -60t-43 -18h-7q-33 0 -43 18t-10 60z" />
<glyph unicode="&#xa9;" horiz-adv-x="1744" d="M102 702q0 166 47.5 299t141 229t241.5 148t340 52t339.5 -52t241.5 -148t141.5 -229t47.5 -299t-47.5 -299t-142 -229t-241.5 -147.5t-339 -51.5q-381 0 -575.5 193.5t-194.5 533.5zM205 702q0 -299 162 -463.5t505 -164.5q174 0 303 44t208.5 127t118 197t38.5 260 t-38.5 259.5t-118 196.5t-209 127t-302.5 44q-174 0 -303 -44t-208.5 -127t-117.5 -196.5t-38 -259.5zM440 700q0 226 114.5 338.5t319.5 112.5q136 0 237 -65t101 -150q0 -43 -57 -43q-23 0 -41 25q-3 4 -22 29t-32 37t-39.5 30t-63.5 26.5t-85 8.5q-156 0 -236.5 -81.5 t-80.5 -267.5q0 -183 84.5 -263.5t255.5 -80.5q127 0 229 45q18 7 27 7q16 0 32.5 -16t16.5 -40q0 -39 -101 -67.5t-210 -28.5q-213 0 -331 108.5t-118 335.5z" />
<glyph unicode="&#xaa;" horiz-adv-x="890" d="M80 883q0 57 23.5 100t63 69.5t99.5 43t124.5 22.5t146.5 6q51 0 69 -2v84q0 64 -50 96.5t-142 32.5q-46 0 -77 -5.5t-51.5 -19t-32 -25.5t-30 -35t-33.5 -38q-12 -12 -34 -12q-19 0 -31 11.5t-12 31.5q0 58 46 101.5t114 64.5t143 21q128 0 208.5 -58t80.5 -160v-383 q0 -53 57 -53q9 0 29 4t28 4q31 0 37 -36q0 -66 -111 -66q-50 0 -87 24.5t-44 69.5q-111 -94 -264 -94q-111 0 -190.5 51.5t-79.5 149.5zM182 885q0 -52 46 -80.5t126 -28.5q147 0 252 101v155q-20 2 -65 2q-79 0 -136 -5t-111.5 -20t-83 -46t-28.5 -78z" />
<glyph unicode="&#xab;" horiz-adv-x="1476" d="M154 600q0 19 20 39l361 346q3 3 11.5 12t12 13t11.5 12t13 11.5t13.5 9t15.5 8t15.5 4.5t17.5 2q57 0 57 -29q0 -10 -4 -16q-6 -9 -14.5 -19t-15 -16.5t-18 -17.5t-15.5 -15l-346 -344l346 -344q4 -4 15.5 -15t18.5 -18t15.5 -17t13.5 -18q4 -6 4 -16q0 -29 -57 -29 q-12 0 -23.5 3.5t-19.5 6.5t-18.5 12.5t-15 14t-17 18t-16.5 17.5l-361 346q-20 20 -20 39zM748 600q0 21 18 39l360 346q2 2 11.5 12.5t12.5 13t11.5 11.5t13.5 12t13.5 8.5t15 8t15.5 4.5t18 2q57 0 57 -29q0 -10 -4 -16q-19 -30 -63 -68l-346 -344l346 -344 q46 -40 63 -68q4 -6 4 -16q0 -29 -57 -29q-12 0 -24 3.5t-19 6.5t-19 13t-15.5 13.5t-17 18t-16.5 17.5l-360 346q-18 18 -18 39z" />
<glyph unicode="&#xac;" d="M176 666v2q0 55 55 55h934q56 0 56 -55v-414q0 -53 -56 -53h-4q-53 0 -53 53v358h-877q-55 0 -55 54z" />
<glyph unicode="&#xad;" horiz-adv-x="1112" d="M244 666v2q0 55 53 55h518q53 0 53 -55v-2q0 -54 -53 -54h-518q-53 0 -53 54z" />
<glyph unicode="&#xae;" horiz-adv-x="1366" d="M106 948q0 218 160 350t418 132t417 -131.5t159 -350.5q0 -220 -159 -351.5t-417 -131.5t-418 131.5t-160 351.5zM201 948q0 -180 128.5 -285.5t354.5 -105.5q224 0 352.5 105.5t128.5 285.5q0 178 -128.5 283.5t-352.5 105.5q-225 0 -354 -105.5t-129 -283.5z M463 1138.5q0 12.5 2.5 30.5t8 27.5t17.5 17t29 7.5h135q142 0 206.5 -35.5t64.5 -128.5q0 -110 -125 -146l90 -151q16 -34 3 -55.5t-43.5 -19.5t-47.5 32l-101 180q-37 -2 -55 -2q-30 0 -84 4v-158q0 -55 -53 -55q-45 0 -45 55v330q0 10 -1 32.5t-1 35zM563 981 q69 -6 92 -6q88 0 128 17.5t40 60.5q0 57 -36 73.5t-132 16.5h-92v-162z" />
<glyph unicode="&#xaf;" horiz-adv-x="1003" d="M186 1348q0 22 14.5 35.5t41.5 13.5h518q55 0 55 -49q0 -52 -55 -52h-518q-56 0 -56 52z" />
<glyph unicode="&#xb0;" horiz-adv-x="806" d="M104 1190q0 107 83 172t212 65q131 0 215 -65t84 -172q0 -106 -84.5 -172t-214.5 -66q-129 0 -212 66t-83 172zM205 1190q0 -64 52 -102.5t142 -38.5q92 0 144.5 38.5t52.5 102.5q0 65 -52 104t-145 39q-90 0 -142 -39t-52 -104z" />
<glyph unicode="&#xb1;" d="M176 53q0 15 3.5 26t12 17t16.5 10t22.5 5t24.5 1t27.5 -0.5t26.5 -0.5h776q9 0 31.5 0.5t32 0.5t26.5 -3t24 -8.5t13.5 -17t6.5 -28.5t-5.5 -28.5t-13.5 -17t-24.5 -8t-27 -2.5t-32.5 0.5t-31 0.5h-776q-9 0 -30.5 -0.5t-32 -0.5t-26.5 2.5t-24 7.5t-14 16.5t-6 27.5z M176 666q0 19 7.5 31.5t18 18t29.5 8t33 2t36.5 -1.5t33.5 -1h309v223q0 11 -1.5 33.5t-2 38t1.5 35t7.5 31t17.5 20t30 8.5q19 0 31.5 -8t18 -19.5t7.5 -31.5t1.5 -35t-1.5 -38t-1 -34v-223h309q10 0 39.5 1.5t44.5 1t35 -5t29.5 -17.5t9.5 -35q0 -16 -4.5 -27t-15 -17 t-21.5 -9.5t-28 -4t-29.5 -0.5t-31 1t-28.5 1h-309v-223q0 -11 1 -33.5t2 -38t-1.5 -35t-8 -31t-17.5 -20t-30 -8.5q-19 0 -31 8t-18 20t-8 31.5t-1.5 34.5t2 38t1.5 34v223h-309q-11 0 -33 -1t-36.5 -1.5t-33 2t-29 8t-18.5 17t-8 29.5z" />
<glyph unicode="&#xb2;" horiz-adv-x="806" d="M104 690q0 41 33 64l332 260q61 45 89.5 89t29.5 97q0 131 -182 131q-54 0 -92.5 -14.5t-57.5 -35.5t-32.5 -41.5t-26.5 -35t-29 -14.5q-24 0 -40.5 12t-16.5 33q0 72 87 133.5t210 61.5q135 0 211.5 -60t76.5 -176q0 -70 -36 -126.5t-109 -115.5l-272 -202h362 q53 0 53 -56q0 -43 -53 -43h-483q-54 0 -54 39z" />
<glyph unicode="&#xb3;" horiz-adv-x="806" d="M88 778q0 16 12.5 33.5t28.5 17.5q15 0 62 -21t105 -42t101 -21q93 0 148 30t55 89q0 70 -54.5 100.5t-162.5 30.5h-49q-55 0 -55 56q0 36 55 36h53q100 0 147.5 34.5t47.5 92.5q0 55 -49 88t-142 33q-57 0 -93.5 -12.5t-50.5 -27t-35.5 -44.5t-39.5 -47q-12 -12 -29 -12 q-22 0 -36.5 12t-14.5 33q0 75 87.5 134t213.5 59q135 0 213 -57.5t78 -155.5q0 -58 -30 -102.5t-91 -63.5q139 -47 139 -185q0 -101 -85 -158t-222 -57q-68 0 -156.5 26t-127.5 62q-23 20 -23 39z" />
<glyph unicode="&#xb4;" horiz-adv-x="1003" d="M348 1225q0 23 12 35l189 227q22 31 55 31q22 0 36.5 -14t14.5 -34q0 -17 -14 -34l-203 -232q-21 -24 -45 -24q-20 0 -32.5 13t-12.5 32z" />
<glyph unicode="&#xb6;" horiz-adv-x="1861" d="M158 952q0 453 630 453h750q53 0 53 -53v-1504q0 -53 -53 -53h-8q-55 0 -55 53v1444h-347v-1444q0 -53 -55 -53h-12q-53 0 -53 53v664q-73 -8 -179 -8q-88 0 -168 9.5t-157 30.5t-138.5 56t-108.5 83.5t-73 117t-26 151.5zM281 952q0 -336 548 -336q115 0 179 7v669h-220 q-268 0 -387.5 -79.5t-119.5 -260.5z" />
<glyph unicode="&#xb7;" horiz-adv-x="552" d="M209 651v35q0 55 53 55h27q55 0 55 -55v-35q0 -55 -55 -55h-27q-53 0 -53 55z" />
<glyph unicode="&#xb8;" horiz-adv-x="1003" d="M287 -266q0 15 12.5 32t28.5 17q13 0 28 -6q7 -2 29.5 -10t36.5 -12.5t33.5 -8.5t33.5 -4q127 0 127 98q0 21 -16 70.5t-16 62.5q0 27 32 27q34 0 58.5 -30.5t33.5 -66.5t9 -69q0 -93 -62 -140.5t-159 -47.5q-51 0 -110 15.5t-85 41.5q-14 17 -14 31z" />
<glyph unicode="&#xb9;" horiz-adv-x="710" d="M131 1270q0 33 39 53l147 68q35 14 66 14q55 0 55 -53v-647q0 -54 -51 -54t-51 54v587l-141 -63q-15 -6 -27 -6q-37 0 -37 47z" />
<glyph unicode="&#xba;" horiz-adv-x="890" d="M80 1047q0 188 98 285.5t268 97.5q171 0 267 -97.5t96 -288.5q0 -182 -98 -282t-265 -100q-170 0 -268 97.5t-98 287.5zM184 1047q0 -153 66.5 -220t195.5 -67q126 0 192.5 66.5t66.5 217.5q0 152 -66.5 219.5t-192.5 67.5q-129 0 -195.5 -66.5t-66.5 -217.5z" />
<glyph unicode="&#xbb;" horiz-adv-x="1476" d="M176 164q0 8 6 20q4 9 15.5 21t30 29.5t22.5 21.5l346 344l-346 344q-4 4 -20 19t-26.5 26.5t-17.5 22.5q-4 6 -4 16q0 29 60 29q12 0 23 -3t18.5 -7t18 -13t15.5 -13.5t17 -17.5t16 -18l361 -346q20 -17 20 -39t-20 -39l-361 -346q-3 -3 -13 -14t-14 -15t-13.5 -13 t-15.5 -12.5t-15 -8.5t-18 -7t-19 -2h-11h-11h-10t-9.5 0.5t-8 1.5t-7 2.5t-5 3.5t-3.5 5.5t-1 7.5zM768 164q0 8 6 20q10 20 70 72l344 344l-344 344q-51 44 -66 68q-4 6 -4 16q0 29 60 29q14 0 26 -3t24.5 -12.5t18.5 -14.5t21 -21t20 -21l359 -346q20 -17 20 -39t-20 -39 l-359 -346q-4 -4 -16 -16.5t-17 -17.5t-16 -14t-19 -13t-19.5 -7.5t-22.5 -3.5h-11h-11h-10t-9.5 0.5t-8 1.5t-7 2.5t-5 3.5t-3.5 5.5t-1 7.5z" />
<glyph unicode="&#xbc;" horiz-adv-x="1777" d="M131 1270q0 33 39 53l147 68q27 11 66 14q18 0 30 -8t17.5 -19.5t8 -30.5t2 -33.5t-1.5 -37.5t-1 -33v-430q0 -9 1.5 -40t0.5 -45.5t-5.5 -36t-16.5 -31t-31 -9.5q-17 0 -28.5 8t-16.5 19.5t-7 30t-1.5 33.5t1.5 36.5t1 32.5v481l-141 -63q-15 -6 -27 -6q-37 0 -37 47z M270 33q0 13 17 33l1073 1306q17 22 36.5 27.5t57.5 5.5q13 0 21 -7t8 -18q0 -20 -21 -41l-1075 -1306q-26 -33 -68 -33q-49 0 -49 33zM1026 236q0 9 1.5 17t5.5 17t7 14.5t10 14.5t10 13t12.5 14.5t12.5 13.5q53 57 146 166t123 143q7 8 27 33t32 37.5t32.5 24.5t41.5 12 q58 0 70 -17t12 -78v-10v-362h76q53 0 53 -53q0 -46 -53 -46h-76q0 -13 2 -45.5t1.5 -52.5t-4 -44t-17 -36t-35.5 -12q-54 0 -54 53v137h-334h-30t-23.5 1.5t-21.5 4t-14 7.5t-10.5 13t-2.5 20zM1159 289h303v338z" />
<glyph unicode="&#xbd;" horiz-adv-x="1835" d="M131 1270q0 33 39 53l147 68q27 11 66 14q18 0 30 -8t17.5 -19.5t8 -30.5t2 -33.5t-1.5 -37.5t-1 -33v-430q0 -9 1.5 -40t0.5 -45.5t-5.5 -36t-16.5 -31t-31 -9.5q-17 0 -28.5 8t-16.5 19.5t-7 30t-1.5 33.5t1.5 36.5t1 32.5v481l-141 -63q-15 -6 -27 -6q-37 0 -37 47z M270 33q0 13 17 33l1073 1306q17 22 36.5 27.5t57.5 5.5q13 0 21 -7t8 -18q0 -20 -21 -41l-1075 -1306q-26 -33 -68 -33q-49 0 -49 33zM1133 41q0 20 8 33q7 14 18.5 25t34.5 28t27 20l276 215q60 47 89 91t30 98q0 129 -182 129q-54 0 -92.5 -14.5t-58 -35t-33 -40.5 t-26 -34.5t-28.5 -14.5q-57 0 -57 43q0 73 86.5 133.5t210.5 60.5q135 0 211.5 -59t76.5 -174q0 -70 -36.5 -127t-108.5 -115l-272 -205h288q9 0 26 0.5t26 0.5t23 -1t21.5 -4.5t15.5 -9t11.5 -15.5t3.5 -24q0 -45 -55 -45h-481q-53 0 -53 41z" />
<glyph unicode="&#xbe;" horiz-adv-x="1855" d="M88 778q0 16 12.5 33.5t28.5 17.5q15 0 62 -21t105 -42t101 -21q93 0 148 30t55 89q0 70 -54.5 100.5t-162.5 30.5h-49q-55 0 -55 56q0 36 55 36h53q100 0 147.5 34.5t47.5 92.5q0 55 -49 88t-142 33q-57 0 -93.5 -12.5t-50.5 -27t-35.5 -44.5t-39.5 -47q-12 -12 -29 -12 q-22 0 -36.5 12t-14.5 33q0 75 87.5 134t213.5 59q135 0 213 -57.5t78 -155.5q0 -58 -30 -102.5t-91 -63.5q139 -47 139 -185q0 -101 -85 -158t-222 -57q-68 0 -156.5 26t-127.5 62q-23 20 -23 39zM346 33q0 16 14 33l1078 1306q16 22 35 27.5t57 5.5q26 0 26 -25 q0 -22 -16 -41l-1079 -1306q-23 -33 -68 -33q-47 0 -47 33zM1102 233q0 9 1.5 17.5t5.5 18t6.5 14.5t10.5 15.5t9.5 12.5t12.5 14t11 13l271 311q6 7 21.5 27t25.5 30t24.5 23.5t30 20t31.5 6.5q32 0 49 -3.5t25 -17.5t9 -27t1 -47v-3v-3v-4v-362h73q54 0 54 -53 q0 -46 -54 -46h-73q0 -11 2 -45t1 -53t-5.5 -44t-18 -36.5t-35.5 -11.5q-51 0 -51 53v137h-336h-7q-28 0 -40.5 0.5t-27.5 4.5t-21 13t-6 25zM1237 289h303v336z" />
<glyph unicode="&#xbf;" horiz-adv-x="1140" d="M86 -20q0 43 10 88q12 49 36 91t64 79t75.5 63t93.5 64q51 32 78.5 52t58 49.5t45 59.5t25 72.5t12.5 99.5q3 54 57 54h6q51 0 51 -52q0 -83 -17.5 -147t-54.5 -113t-78.5 -84t-105.5 -75q-62 -39 -98 -65.5t-70 -62.5t-48.5 -76t-14.5 -91q0 -105 87 -175.5t263 -70.5 q329 0 395 227q12 43 52 43h14q23 0 38 -14t15 -33q0 -10 -2 -14q-13 -63 -48 -117.5t-94 -101.5t-154 -74t-214 -27q-118 0 -211.5 29.5t-150 79t-86 111.5t-29.5 131zM575 975v37q0 53 56 53h24q56 0 56 -53v-37q0 -53 -56 -53h-24q-56 0 -56 53z" />
<glyph unicode="&#xc0;" horiz-adv-x="1259" d="M33 39q0 13 6 31l510 1294q20 53 86 53q62 0 82 -53l504 -1290q6 -18 6 -33q0 -25 -16.5 -40t-39.5 -15q-44 0 -61 45l-147 385h-668l-143 -375q-10 -25 -29 -38t-41 -13q-21 0 -35 12.5t-14 36.5zM338 526h582l-289 756zM367 1810q0 20 14.5 34t36.5 14q33 0 55 -31 l189 -228q12 -15 12 -34t-12.5 -32t-32.5 -13q-24 0 -45 24l-203 232q-14 17 -14 34z" />
<glyph unicode="&#xc1;" horiz-adv-x="1259" d="M33 39q0 13 6 31l510 1294q20 53 86 53q62 0 82 -53l504 -1290q6 -18 6 -33q0 -25 -16.5 -40t-39.5 -15q-44 0 -61 45l-147 385h-668l-143 -375q-10 -25 -29 -38t-41 -13q-21 0 -35 12.5t-14 36.5zM338 526h582l-289 756zM578 1565q0 22 12 34l188 228q22 31 56 31 q22 0 36.5 -14t14.5 -34q0 -16 -15 -34l-202 -232q-21 -24 -45 -24q-20 0 -32.5 13t-12.5 32z" />
<glyph unicode="&#xc2;" horiz-adv-x="1259" d="M33 39q0 13 6 31l510 1294q20 53 86 53q62 0 82 -53l504 -1290q6 -18 6 -33q0 -25 -16.5 -40t-39.5 -15q-44 0 -61 45l-147 385h-668l-143 -375q-10 -25 -29 -38t-41 -13q-21 0 -35 12.5t-14 36.5zM338 526h582l-289 756zM358 1559q0 16 15 34l168 219q38 50 88 50 q52 0 90 -50l168 -219q14 -14 14 -34q0 -17 -13 -29t-30 -12q-29 0 -51 28l-176 215l-178 -217q-23 -26 -52 -26q-18 0 -30.5 11.5t-12.5 29.5z" />
<glyph unicode="&#xc3;" horiz-adv-x="1259" d="M33 39q0 13 6 31l510 1294q20 53 86 53q62 0 82 -53l504 -1290q6 -18 6 -33q0 -25 -16.5 -40t-39.5 -15q-44 0 -61 45l-147 385h-668l-143 -375q-10 -25 -29 -38t-41 -13q-21 0 -35 12.5t-14 36.5zM293 1636q0 52 57.5 97t122.5 45q61 0 172 -40t141 -40q28 0 50 12 t33.5 27t26 27t28.5 12q15 0 30 -10t15 -27q0 -54 -62.5 -95.5t-126.5 -41.5q-53 0 -162 39.5t-145 39.5q-28 0 -50 -13t-32.5 -28t-24 -28t-28.5 -13t-30 9t-15 28zM338 526h582l-289 756z" />
<glyph unicode="&#xc4;" horiz-adv-x="1259" d="M33 39q0 13 6 31l510 1294q20 53 86 53q62 0 82 -53l504 -1290q6 -18 6 -33q0 -25 -16.5 -40t-39.5 -15q-44 0 -61 45l-147 385h-668l-143 -375q-10 -25 -29 -38t-41 -13q-21 0 -35 12.5t-14 36.5zM338 526h582l-289 756zM373 1690q0 41 10 58t43 17h6q33 0 43 -17 t10 -58q0 -42 -10 -60t-43 -18h-6q-33 0 -43 18t-10 60zM774 1690q0 41 10 58t43 17h7q33 0 43 -17t10 -58q0 -42 -10 -60t-43 -18h-7q-33 0 -43 18t-10 60z" />
<glyph unicode="&#xc5;" horiz-adv-x="1259" d="M33 39q0 13 6 31l510 1294q20 53 86 53q62 0 82 -53l504 -1290q6 -18 6 -33q0 -25 -16.5 -40t-39.5 -15q-44 0 -61 45l-147 385h-668l-143 -375q-10 -25 -29 -38t-41 -13q-21 0 -35 12.5t-14 36.5zM338 526h582l-289 756zM414 1688q0 75 60.5 117t154.5 42 q96 0 156.5 -41.5t60.5 -117.5t-61 -119t-156 -43q-94 0 -154.5 43t-60.5 119zM506 1688q0 -39 32.5 -59.5t90.5 -20.5q60 0 93.5 20.5t33.5 59.5q0 38 -33.5 57.5t-93.5 19.5q-58 0 -90.5 -19.5t-32.5 -57.5z" />
<glyph unicode="&#xc6;" horiz-adv-x="2095" d="M-88 39q0 19 14 39l1026 1294q26 33 68 33h838q53 0 53 -57q0 -56 -53 -56h-721v-510h686q55 0 55 -55t-55 -55h-686v-559h757q56 0 56 -56q0 -57 -56 -57h-821q-53 0 -53 53v369h-682l-318 -402q-25 -32 -57 -32q-22 0 -36.5 14.5t-14.5 36.5zM422 526h598v754z" />
<glyph unicode="&#xc7;" horiz-adv-x="1441" d="M102 700q0 149 51 284t139 233.5t212.5 156.5t263.5 58q226 0 366 -91.5t166 -226.5q6 -34 -18.5 -51.5t-55 -9.5t-40.5 37q-33 101 -136 166t-282 65q-155 0 -281 -83.5t-196 -225.5t-70 -312q0 -177 71.5 -317t205.5 -219.5t309 -79.5q99 0 184 15.5t126.5 30.5 t107.5 44q45 18 66 -13q20 -29 -1 -63q-12 -19 -35 -30q-179 -85 -383 -93q41 -77 41 -141q0 -93 -62 -140.5t-159 -47.5q-68 0 -137.5 25t-69.5 63q0 15 11.5 32t27.5 17q14 0 73 -20.5t91 -20.5q125 0 125 98q0 55 -41 135q-148 6 -273 62.5t-212 152t-136 227t-49 283.5z " />
<glyph unicode="&#xc8;" horiz-adv-x="1345" d="M270 53v1299q0 53 56 53h782q53 0 53 -57q0 -56 -53 -56h-721v-510h686q55 0 55 -55t-55 -55h-686v-559h758q55 0 55 -56q0 -57 -55 -57h-819q-56 0 -56 53zM508 1810q0 20 14.5 34t36.5 14q33 0 55 -31l189 -228q12 -15 12 -34t-12.5 -32t-32.5 -13q-24 0 -45 24 l-203 232q-14 17 -14 34z" />
<glyph unicode="&#xc9;" horiz-adv-x="1345" d="M270 53v1299q0 53 56 53h782q53 0 53 -57q0 -56 -53 -56h-721v-510h686q55 0 55 -55t-55 -55h-686v-559h758q55 0 55 -56q0 -57 -55 -57h-819q-56 0 -56 53zM578 1565q0 22 12 34l188 228q22 31 56 31q22 0 36.5 -14t14.5 -34q0 -16 -15 -34l-202 -232q-21 -24 -45 -24 q-20 0 -32.5 13t-12.5 32z" />
<glyph unicode="&#xca;" horiz-adv-x="1345" d="M270 53v1299q0 53 56 53h782q53 0 53 -57q0 -56 -53 -56h-721v-510h686q55 0 55 -55t-55 -55h-686v-559h758q55 0 55 -56q0 -57 -55 -57h-819q-56 0 -56 53zM451 1559q0 17 14 34l168 219q38 50 88 50q52 0 90 -50l168 -219q14 -14 14 -34q0 -17 -13 -29t-30 -12 q-29 0 -51 28l-176 215l-178 -217q-23 -26 -51 -26q-18 0 -30.5 11.5t-12.5 29.5z" />
<glyph unicode="&#xcb;" horiz-adv-x="1345" d="M270 53v1299q0 53 56 53h782q53 0 53 -57q0 -56 -53 -56h-721v-510h686q55 0 55 -55t-55 -55h-686v-559h758q55 0 55 -56q0 -57 -55 -57h-819q-56 0 -56 53zM444 1690q0 40 10.5 57.5t43.5 17.5h6q33 0 43 -17t10 -58q0 -42 -10 -60t-43 -18h-6q-33 0 -43.5 18t-10.5 60z M846 1690q0 41 10 58t43 17h6q33 0 43 -17t10 -58q0 -42 -10 -60t-43 -18h-6q-33 0 -43 18t-10 60z" />
<glyph unicode="&#xcc;" horiz-adv-x="657" d="M61 1810q0 20 15 34t37 14q33 0 55 -31l188 -228q13 -16 13 -34q0 -19 -12.5 -32t-32.5 -13q-24 0 -45 24l-203 232q-15 18 -15 34zM270 53v1299q0 53 56 53h8q53 0 53 -53v-1299q0 -53 -53 -53h-8q-56 0 -56 53z" />
<glyph unicode="&#xcd;" horiz-adv-x="657" d="M270 53v1299q0 53 56 53h8q53 0 53 -53v-1299q0 -53 -53 -53h-8q-56 0 -56 53zM293 1565q0 22 12 34l189 228q22 31 55 31q22 0 36.5 -14t14.5 -34q0 -17 -14 -34l-203 -232q-21 -24 -45 -24q-20 0 -32.5 13t-12.5 32z" />
<glyph unicode="&#xce;" horiz-adv-x="657" d="M59 1559q0 16 15 34l168 219q38 50 88 50q52 0 90 -50l168 -219q14 -14 14 -34q0 -17 -13 -29t-30 -12q-29 0 -51 28l-176 215l-178 -217q-23 -26 -52 -26q-18 0 -30.5 11.5t-12.5 29.5zM270 53v1299q0 53 56 53h8q53 0 53 -53v-1299q0 -53 -53 -53h-8q-56 0 -56 53z" />
<glyph unicode="&#xcf;" horiz-adv-x="657" d="M74 1690q0 41 10 58t43 17h6q33 0 43 -17t10 -58q0 -42 -10 -60t-43 -18h-6q-33 0 -43 18t-10 60zM270 53v1299q0 53 56 53h8q53 0 53 -53v-1299q0 -53 -53 -53h-8q-56 0 -56 53zM475 1690q0 41 10 58t43 17h7q33 0 43 -17t10 -58q0 -42 -10 -60t-43 -18h-7q-33 0 -43 18 t-10 60z" />
<glyph unicode="&#xd0;" horiz-adv-x="1570" d="M57 717q0 51 56 51h157v584q0 53 56 53h336q179 0 322.5 -42.5t247.5 -127t160 -218t56 -308.5q0 -180 -57.5 -316.5t-163.5 -222t-249 -128t-319 -42.5h-333q-56 0 -56 53v609h-157q-56 0 -56 55zM387 113h258q682 0 682 598q0 152 -49.5 265t-141 181.5t-214 101.5 t-277.5 33h-258v-524h373q61 0 61 -51q0 -55 -61 -55h-373v-549z" />
<glyph unicode="&#xd1;" horiz-adv-x="1644" d="M270 53v1309q0 25 19 40t45 15q35 0 53 -24l870 -1178v1137q0 53 56 53h6q53 0 53 -53v-1299q0 -28 -16.5 -44.5t-40.5 -16.5q-37 0 -64 37l-866 1169v-1145q0 -53 -53 -53h-6q-56 0 -56 53zM522 1636q0 52 57.5 97t122.5 45q61 0 172.5 -40t141.5 -40q35 0 60 19.5 t42.5 39t34.5 19.5q15 0 30 -10t15 -27q0 -54 -62 -95.5t-126 -41.5q-53 0 -162.5 39.5t-145.5 39.5q-28 0 -50 -13t-32.5 -28t-24 -28t-28.5 -13t-30 9t-15 28z" />
<glyph unicode="&#xd2;" horiz-adv-x="1660" d="M102 700q0 148 57.5 283.5t155 234t231.5 156.5t281 58q148 0 283.5 -58t234 -156.5t156.5 -234t58 -283.5q0 -147 -58 -281.5t-156.5 -232t-234 -155.5t-283.5 -58q-196 0 -363 98t-264.5 265.5t-97.5 363.5zM221 700q0 -166 81 -308t220.5 -225t304.5 -83 q126 0 239.5 49t194.5 132t129 196.5t48 238.5q0 126 -48 241t-129 198t-194.5 132.5t-239.5 49.5q-165 0 -304.5 -83.5t-220.5 -226.5t-81 -311zM598 1810q0 20 14.5 34t36.5 14q34 0 56 -31l188 -228q12 -15 12 -34t-12.5 -32t-32.5 -13q-24 0 -45 24l-203 232 q-14 17 -14 34z" />
<glyph unicode="&#xd3;" horiz-adv-x="1660" d="M102 700q0 148 57.5 283.5t155 234t231.5 156.5t281 58q148 0 283.5 -58t234 -156.5t156.5 -234t58 -283.5q0 -147 -58 -281.5t-156.5 -232t-234 -155.5t-283.5 -58q-196 0 -363 98t-264.5 265.5t-97.5 363.5zM221 700q0 -166 81 -308t220.5 -225t304.5 -83 q126 0 239.5 49t194.5 132t129 196.5t48 238.5q0 126 -48 241t-129 198t-194.5 132.5t-239.5 49.5q-165 0 -304.5 -83.5t-220.5 -226.5t-81 -311zM776 1565q0 22 12 34l189 228q22 31 55 31q22 0 36.5 -14t14.5 -34q0 -17 -14 -34l-203 -232q-21 -24 -45 -24q-20 0 -32.5 13 t-12.5 32z" />
<glyph unicode="&#xd4;" horiz-adv-x="1660" d="M102 700q0 148 57.5 283.5t155 234t231.5 156.5t281 58q148 0 283.5 -58t234 -156.5t156.5 -234t58 -283.5q0 -147 -58 -281.5t-156.5 -232t-234 -155.5t-283.5 -58q-196 0 -363 98t-264.5 265.5t-97.5 363.5zM221 700q0 -166 81 -308t220.5 -225t304.5 -83 q126 0 239.5 49t194.5 132t129 196.5t48 238.5q0 126 -48 241t-129 198t-194.5 132.5t-239.5 49.5q-165 0 -304.5 -83.5t-220.5 -226.5t-81 -311zM557 1559q0 17 14 34l168 219q38 50 88 50q53 0 91 -50l167 -219q15 -15 15 -34q0 -17 -13 -29t-30 -12q-29 0 -51 28 l-177 215l-178 -217q-23 -26 -51 -26q-18 0 -30.5 11.5t-12.5 29.5z" />
<glyph unicode="&#xd5;" horiz-adv-x="1660" d="M102 700q0 148 57.5 283.5t155 234t231.5 156.5t281 58q148 0 283.5 -58t234 -156.5t156.5 -234t58 -283.5q0 -147 -58 -281.5t-156.5 -232t-234 -155.5t-283.5 -58q-196 0 -363 98t-264.5 265.5t-97.5 363.5zM221 700q0 -166 81 -308t220.5 -225t304.5 -83 q126 0 239.5 49t194.5 132t129 196.5t48 238.5q0 126 -48 241t-129 198t-194.5 132.5t-239.5 49.5q-165 0 -304.5 -83.5t-220.5 -226.5t-81 -311zM492 1636q0 52 57.5 97t122.5 45q61 0 172 -40t141 -40q35 0 60 19.5t42.5 39t34.5 19.5q15 0 30 -10t15 -27q0 -54 -62 -95.5 t-126 -41.5q-53 0 -162 39.5t-145 39.5q-28 0 -50 -13t-32.5 -28t-24 -28t-28.5 -13t-30 9t-15 28z" />
<glyph unicode="&#xd6;" horiz-adv-x="1660" d="M102 700q0 148 57.5 283.5t155 234t231.5 156.5t281 58q148 0 283.5 -58t234 -156.5t156.5 -234t58 -283.5q0 -147 -58 -281.5t-156.5 -232t-234 -155.5t-283.5 -58q-196 0 -363 98t-264.5 265.5t-97.5 363.5zM221 700q0 -166 81 -308t220.5 -225t304.5 -83 q126 0 239.5 49t194.5 132t129 196.5t48 238.5q0 126 -48 241t-129 198t-194.5 132.5t-239.5 49.5q-165 0 -304.5 -83.5t-220.5 -226.5t-81 -311zM571 1690q0 40 10.5 57.5t43.5 17.5h6q33 0 43 -17t10 -58q0 -42 -10 -60t-43 -18h-6q-33 0 -43.5 18t-10.5 60zM973 1690 q0 41 10 58t43 17h6q33 0 43 -17t10 -58q0 -42 -10 -60t-43 -18h-6q-33 0 -43 18t-10 60z" />
<glyph unicode="&#xd7;" d="M240 299q0 21 18 39l360 338l-360 340q-18 18 -18 37q0 20 16 39l2 2q20 20 41 20q19 0 37 -18l362 -344l361 344q18 18 37 18q21 0 41 -20l2 -2q16 -16 16 -39q0 -22 -18 -37l-359 -340l359 -338q18 -15 18 -39q0 -23 -16 -39l-2 -2q-22 -18 -41 -18q-18 0 -37 16 l-361 344l-362 -344q-19 -16 -37 -16q-19 0 -41 18l-2 2q-16 19 -16 39z" />
<glyph unicode="&#xd8;" horiz-adv-x="1751" d="M147 4q0 22 15 37l164 182q-85 97 -132 220t-47 257q0 148 57.5 283.5t155 234t231.5 156.5t281 58q224 0 416 -132l119 136q15 18 41 18q19 0 37 -17.5t18 -37.5q0 -21 -16 -37l-117 -127q110 -104 172 -242t62 -293q0 -147 -58 -281.5t-156.5 -232t-234 -155.5 t-283.5 -58q-262 0 -471 177l-157 -181q-17 -20 -41 -20q-20 0 -38 17.5t-18 37.5zM266 700q0 -216 137 -389l809 906q-151 104 -340 104q-165 0 -304.5 -83.5t-220.5 -226.5t-81 -311zM477 233q172 -149 395 -149q126 0 239.5 49t194.5 132t129 196.5t48 238.5 q0 129 -49.5 246t-137.5 203z" />
<glyph unicode="&#xd9;" horiz-adv-x="1492" d="M242 485v867q0 53 53 53h8q53 0 53 -53v-865q0 -407 396 -407q88 0 155.5 20t111.5 55t71.5 87t39 111.5t11.5 133.5v865q0 53 53 53h4q55 0 55 -53v-867q0 -115 -27 -206t-85 -161t-156.5 -107.5t-232.5 -37.5q-111 0 -197.5 25t-145 69.5t-96.5 109.5t-54.5 140.5 t-16.5 167.5zM535 1810q0 20 14.5 34t36.5 14q33 0 55 -31l188 -228q13 -16 13 -34q0 -19 -12.5 -32t-32.5 -13q-24 0 -45 24l-203 232q-14 17 -14 34z" />
<glyph unicode="&#xda;" horiz-adv-x="1492" d="M242 485v867q0 53 53 53h8q53 0 53 -53v-865q0 -407 396 -407q88 0 155.5 20t111.5 55t71.5 87t39 111.5t11.5 133.5v865q0 53 53 53h4q55 0 55 -53v-867q0 -115 -27 -206t-85 -161t-156.5 -107.5t-232.5 -37.5q-111 0 -197.5 25t-145 69.5t-96.5 109.5t-54.5 140.5 t-16.5 167.5zM670 1565q0 22 12 34l188 228q22 31 56 31q22 0 36.5 -14t14.5 -34q0 -17 -14 -34l-203 -232q-21 -24 -45 -24q-20 0 -32.5 13t-12.5 32z" />
<glyph unicode="&#xdb;" horiz-adv-x="1492" d="M242 485v867q0 53 53 53h8q53 0 53 -53v-865q0 -407 396 -407q88 0 155.5 20t111.5 55t71.5 87t39 111.5t11.5 133.5v865q0 53 53 53h4q55 0 55 -53v-867q0 -115 -27 -206t-85 -161t-156.5 -107.5t-232.5 -37.5q-111 0 -197.5 25t-145 69.5t-96.5 109.5t-54.5 140.5 t-16.5 167.5zM475 1559q0 17 14 34l168 219q38 50 88 50q53 0 91 -50l168 -219q14 -14 14 -34q0 -17 -13 -29t-30 -12q-29 0 -51 28l-176 215l-179 -217q-23 -26 -51 -26q-18 0 -30.5 11.5t-12.5 29.5z" />
<glyph unicode="&#xdc;" horiz-adv-x="1492" d="M242 485v867q0 53 53 53h8q53 0 53 -53v-865q0 -407 396 -407q88 0 155.5 20t111.5 55t71.5 87t39 111.5t11.5 133.5v865q0 53 53 53h4q55 0 55 -53v-867q0 -115 -27 -206t-85 -161t-156.5 -107.5t-232.5 -37.5q-111 0 -197.5 25t-145 69.5t-96.5 109.5t-54.5 140.5 t-16.5 167.5zM489 1690q0 40 10.5 57.5t43.5 17.5h6q33 0 43 -17t10 -58q0 -42 -10 -60t-43 -18h-6q-33 0 -43.5 18t-10.5 60zM891 1690q0 41 10 58t43 17h6q33 0 43.5 -17.5t10.5 -57.5q0 -42 -10.5 -60t-43.5 -18h-6q-33 0 -43 18t-10 60z" />
<glyph unicode="&#xdd;" horiz-adv-x="1247" d="M84 1378q0 23 15.5 38.5t37.5 15.5q33 0 53 -35l433 -721l434 719q21 37 57 37q21 0 36 -14.5t15 -35.5q0 -18 -12 -36l-473 -787v-506q0 -53 -53 -53h-9q-53 0 -53 53v506l-471 782q-10 15 -10 37zM551 1565q0 22 12 34l189 228q22 31 55 31q22 0 36.5 -14t14.5 -34 q0 -17 -14 -34l-203 -232q-21 -24 -45 -24q-20 0 -32.5 13t-12.5 32z" />
<glyph unicode="&#xde;" horiz-adv-x="1363" d="M270 53v1299q0 53 56 53h10q53 0 53 -53v-183h270q268 0 421 -114t153 -338q0 -102 -32.5 -181.5t-85 -128.5t-127.5 -80.5t-153 -44t-167 -12.5q-103 0 -279 23v-240q0 -53 -55 -53h-8q-56 0 -56 53zM389 406q145 -23 283 -23q80 0 144 9.5t120.5 33t94.5 61t59.5 96 t21.5 134.5q0 173 -123 256.5t-330 83.5h-270v-651z" />
<glyph unicode="&#xdf;" horiz-adv-x="1234" d="M231 53v1082q0 176 92.5 273t268.5 97q175 0 272 -90.5t97 -240.5q0 -55 -24 -105.5t-58.5 -88t-69 -72.5t-58.5 -72.5t-24 -73.5q0 -35 23 -67.5t59.5 -59t80.5 -54.5t88 -59.5t80.5 -67.5t59.5 -85.5t23 -106.5q0 -131 -90 -210t-244 -79q-60 0 -120 18t-101.5 44.5 t-67.5 56t-26 51.5q0 21 16.5 39.5t34.5 18.5q12 0 36.5 -19t51.5 -41.5t74.5 -41.5t99.5 -19q115 0 167 44.5t52 133.5q0 39 -17.5 73t-46.5 59t-66 50.5t-76 47t-76 49t-66 56.5t-46.5 70t-17.5 89q0 57 24 106t58 84t68 68.5t58 73.5t24 83q0 103 -63.5 168.5 t-178.5 65.5q-138 0 -197 -66t-59 -200v-1082q0 -53 -55 -53h-6q-54 0 -54 53z" />
<glyph unicode="&#xe0;" horiz-adv-x="1153" d="M139 285q0 91 37 155t104.5 98.5t147.5 49t182 14.5t221 -14v180q0 104 -64.5 159.5t-186.5 55.5q-95 0 -157.5 -39.5t-113.5 -126.5q-17 -29 -49 -29q-22 0 -39.5 14t-17.5 34q0 6 4 18q38 108 135.5 172t241.5 64q362 0 362 -330v-588q0 -53 17.5 -77.5t56.5 -24.5 q19 0 49.5 15t36.5 15q17 0 29 -13t12 -38q0 -33 -48.5 -53.5t-97.5 -20.5q-71 0 -112.5 39t-50.5 127q-66 -68 -168 -117t-211 -49q-144 0 -232 82t-88 228zM254 285q0 -205 217 -205q103 0 196 48.5t164 133.5v219q-119 17 -223 17q-64 0 -114.5 -5.5t-96.5 -19.5 t-76.5 -37.5t-48.5 -61.5t-18 -89zM336 1470q0 20 14.5 34t36.5 14q33 0 55 -31l189 -227q12 -15 12 -35q0 -19 -12.5 -32t-32.5 -13q-24 0 -45 24l-203 232q-14 17 -14 34z" />
<glyph unicode="&#xe1;" horiz-adv-x="1153" d="M139 285q0 91 37 155t104.5 98.5t147.5 49t182 14.5t221 -14v180q0 104 -64.5 159.5t-186.5 55.5q-95 0 -157.5 -39.5t-113.5 -126.5q-17 -29 -49 -29q-22 0 -39.5 14t-17.5 34q0 6 4 18q38 108 135.5 172t241.5 64q362 0 362 -330v-588q0 -53 17.5 -77.5t56.5 -24.5 q19 0 49.5 15t36.5 15q17 0 29 -13t12 -38q0 -33 -48.5 -53.5t-97.5 -20.5q-71 0 -112.5 39t-50.5 127q-66 -68 -168 -117t-211 -49q-144 0 -232 82t-88 228zM254 285q0 -205 217 -205q103 0 196 48.5t164 133.5v219q-119 17 -223 17q-64 0 -114.5 -5.5t-96.5 -19.5 t-76.5 -37.5t-48.5 -61.5t-18 -89zM539 1225q0 23 12 35l188 227q22 31 56 31q22 0 36.5 -14t14.5 -34q0 -16 -15 -34l-202 -232q-21 -24 -45 -24q-20 0 -32.5 13t-12.5 32z" />
<glyph unicode="&#xe2;" horiz-adv-x="1153" d="M139 285q0 91 37 155t104.5 98.5t147.5 49t182 14.5t221 -14v180q0 104 -64.5 159.5t-186.5 55.5q-95 0 -157.5 -39.5t-113.5 -126.5q-17 -29 -49 -29q-22 0 -39.5 14t-17.5 34q0 6 4 18q38 108 135.5 172t241.5 64q362 0 362 -330v-588q0 -53 17.5 -77.5t56.5 -24.5 q19 0 49.5 15t36.5 15q17 0 29 -13t12 -38q0 -33 -48.5 -53.5t-97.5 -20.5q-71 0 -112.5 39t-50.5 127q-66 -68 -168 -117t-211 -49q-144 0 -232 82t-88 228zM254 285q0 -205 217 -205q103 0 196 48.5t164 133.5v219q-119 17 -223 17q-64 0 -114.5 -5.5t-96.5 -19.5 t-76.5 -37.5t-48.5 -61.5t-18 -89zM336 1219q0 17 14 34l168 220q37 49 88 49q53 0 90 -49l168 -220q15 -15 15 -34q0 -17 -13 -29t-30 -12q-30 0 -52 28l-176 215l-178 -217q-23 -26 -51 -26q-18 0 -30.5 11.5t-12.5 29.5z" />
<glyph unicode="&#xe3;" horiz-adv-x="1153" d="M139 285q0 91 37 155t104.5 98.5t147.5 49t182 14.5t221 -14v180q0 104 -64.5 159.5t-186.5 55.5q-95 0 -157.5 -39.5t-113.5 -126.5q-17 -29 -49 -29q-22 0 -39.5 14t-17.5 34q0 6 4 18q38 108 135.5 172t241.5 64q362 0 362 -330v-588q0 -53 17.5 -77.5t56.5 -24.5 q19 0 49.5 15t36.5 15q17 0 29 -13t12 -38q0 -33 -48.5 -53.5t-97.5 -20.5q-71 0 -112.5 39t-50.5 127q-66 -68 -168 -117t-211 -49q-144 0 -232 82t-88 228zM254 285q0 -205 217 -205q103 0 196 48.5t164 133.5v219q-119 17 -223 17q-64 0 -114.5 -5.5t-96.5 -19.5 t-76.5 -37.5t-48.5 -61.5t-18 -89zM276 1296q0 52 58 97t123 45q61 0 172 -40t141 -40q35 0 60 19.5t42.5 39t34.5 19.5q15 0 30 -10t15 -27q0 -54 -62 -95.5t-126 -41.5q-53 0 -162 39.5t-145 39.5q-28 0 -50 -12.5t-32.5 -28t-24 -28t-28.5 -12.5t-30.5 8.5t-15.5 27.5z " />
<glyph unicode="&#xe4;" horiz-adv-x="1153" d="M139 285q0 91 37 155t104.5 98.5t147.5 49t182 14.5t221 -14v180q0 104 -64.5 159.5t-186.5 55.5q-95 0 -157.5 -39.5t-113.5 -126.5q-17 -29 -49 -29q-22 0 -39.5 14t-17.5 34q0 6 4 18q38 108 135.5 172t241.5 64q362 0 362 -330v-588q0 -53 17.5 -77.5t56.5 -24.5 q19 0 49.5 15t36.5 15q17 0 29 -13t12 -38q0 -33 -48.5 -53.5t-97.5 -20.5q-71 0 -112.5 39t-50.5 127q-66 -68 -168 -117t-211 -49q-144 0 -232 82t-88 228zM254 285q0 -205 217 -205q103 0 196 48.5t164 133.5v219q-119 17 -223 17q-64 0 -114.5 -5.5t-96.5 -19.5 t-76.5 -37.5t-48.5 -61.5t-18 -89zM342 1350q0 41 10 58t43 17h6q33 0 43.5 -17.5t10.5 -57.5q0 -42 -10.5 -60t-43.5 -18h-6q-33 0 -43 18t-10 60zM743 1350q0 40 10.5 57.5t43.5 17.5h6q33 0 43 -17t10 -58q0 -42 -10 -60t-43 -18h-6q-33 0 -43.5 18t-10.5 60z" />
<glyph unicode="&#xe5;" horiz-adv-x="1153" d="M139 285q0 91 37 155t104.5 98.5t147.5 49t182 14.5t221 -14v180q0 104 -64.5 159.5t-186.5 55.5q-95 0 -157.5 -39.5t-113.5 -126.5q-17 -29 -49 -29q-22 0 -39.5 14t-17.5 34q0 6 4 18q38 108 135.5 172t241.5 64q362 0 362 -330v-588q0 -53 17.5 -77.5t56.5 -24.5 q19 0 49.5 15t36.5 15q17 0 29 -13t12 -38q0 -33 -48.5 -53.5t-97.5 -20.5q-71 0 -112.5 39t-50.5 127q-66 -68 -168 -117t-211 -49q-144 0 -232 82t-88 228zM254 285q0 -205 217 -205q103 0 196 48.5t164 133.5v219q-119 17 -223 17q-64 0 -114.5 -5.5t-96.5 -19.5 t-76.5 -37.5t-48.5 -61.5t-18 -89zM383 1348q0 75 60.5 117t154.5 42q96 0 156.5 -41.5t60.5 -117.5t-61 -119t-156 -43q-94 0 -154.5 43t-60.5 119zM475 1348q0 -39 32.5 -59.5t90.5 -20.5q60 0 93.5 20.5t33.5 59.5q0 38 -33.5 57.5t-93.5 19.5q-58 0 -90.5 -19.5 t-32.5 -57.5z" />
<glyph unicode="&#xe6;" horiz-adv-x="1916" d="M139 285q0 91 37 155t104.5 98.5t147.5 49t182 14.5t221 -14v180q0 104 -64.5 159.5t-186.5 55.5q-95 0 -157.5 -39.5t-113.5 -126.5q-16 -26 -45.5 -28t-48.5 18t-8 47q38 108 135.5 172t241.5 64q281 0 344 -199q129 199 385 199q116 0 209.5 -36t152.5 -97.5t90 -140 t31 -165.5v-57q0 -53 -53 -53h-789q0 -96 27 -179.5t76.5 -146.5t126 -99t170.5 -36q77 0 146.5 14.5t108.5 31.5t72 31.5t45 14.5q19 0 32.5 -15.5t13.5 -39.5q0 -32 -67.5 -66t-166 -56t-184.5 -22q-142 0 -256 67t-183 175q-100 -114 -219 -178t-237 -64q-144 0 -232 83 t-88 229zM254 285q0 -207 217 -207q102 0 195 49.5t165 134.5v219q-119 17 -223 17q-64 0 -114.5 -5.5t-96.5 -19.5t-76.5 -37.5t-48.5 -61.5t-18 -89zM965 645h712q0 158 -98 248t-266 90q-284 0 -348 -338z" />
<glyph unicode="&#xe7;" horiz-adv-x="1165" d="M121 532q0 154 64 281t183.5 202t270.5 75t248.5 -67t134.5 -181q7 -25 1 -45t-22 -29.5t-34 -10.5t-35 11.5t-25 36.5q-10 29 -29 57.5t-50 57t-80 46t-109 17.5q-182 0 -290.5 -129.5t-108.5 -321.5q0 -194 108.5 -324t290.5 -130q75 0 142 17.5t99.5 34t71.5 42.5 q20 13 40 14t32 -9t18 -24.5t-0.5 -32.5t-25.5 -32q-138 -99 -326 -113q37 -88 37 -141q0 -93 -62 -140.5t-159 -47.5q-68 0 -138.5 25t-70.5 63q0 15 12.5 32t28.5 17q14 0 73 -20.5t89 -20.5q127 0 127 98q0 59 -37 135q-139 12 -246.5 89.5t-165 199.5t-57.5 268z" />
<glyph unicode="&#xe8;" horiz-adv-x="1208" d="M127 532q0 163 54 287.5t163 197.5t260 73q116 0 209.5 -36t152.5 -97.5t90 -140t31 -165.5v-57q0 -53 -53 -53h-788q0 -129 45.5 -232t137.5 -166t216 -63q77 0 146.5 14t109 31t72.5 31t45 14q19 0 32 -15.5t13 -39.5q0 -32 -67.5 -65.5t-165.5 -55t-185 -21.5 q-151 0 -270.5 75.5t-183.5 202.5t-64 281zM256 645h713q0 157 -98.5 247.5t-266.5 90.5q-284 0 -348 -338zM401 1470q0 20 15 34t37 14q33 0 55 -31l188 -227q13 -16 13 -35t-12.5 -32t-32.5 -13q-25 0 -46 24l-202 232q-15 18 -15 34z" />
<glyph unicode="&#xe9;" horiz-adv-x="1208" d="M127 532q0 163 54 287.5t163 197.5t260 73q116 0 209.5 -36t152.5 -97.5t90 -140t31 -165.5v-57q0 -53 -53 -53h-788q0 -129 45.5 -232t137.5 -166t216 -63q77 0 146.5 14t109 31t72.5 31t45 14q19 0 32 -15.5t13 -39.5q0 -32 -67.5 -65.5t-165.5 -55t-185 -21.5 q-151 0 -270.5 75.5t-183.5 202.5t-64 281zM256 645h713q0 157 -98.5 247.5t-266.5 90.5q-284 0 -348 -338zM567 1225q0 22 13 35l188 227q22 31 55 31q22 0 36.5 -14t14.5 -34q0 -17 -14 -34l-203 -232q-21 -24 -45 -24q-20 0 -32.5 13t-12.5 32z" />
<glyph unicode="&#xea;" horiz-adv-x="1208" d="M127 532q0 163 54 287.5t163 197.5t260 73q116 0 209.5 -36t152.5 -97.5t90 -140t31 -165.5v-57q0 -53 -53 -53h-788q0 -129 45.5 -232t137.5 -166t216 -63q77 0 146.5 14t109 31t72.5 31t45 14q19 0 32 -15.5t13 -39.5q0 -32 -67.5 -65.5t-165.5 -55t-185 -21.5 q-151 0 -270.5 75.5t-183.5 202.5t-64 281zM256 645h713q0 157 -98.5 247.5t-266.5 90.5q-284 0 -348 -338zM352 1219q0 16 15 34l168 220q37 49 88 49q53 0 90 -49l168 -220q14 -14 14 -34q0 -17 -13 -29t-30 -12q-29 0 -51 28l-176 215l-179 -217q-23 -26 -51 -26 q-18 0 -30.5 11.5t-12.5 29.5z" />
<glyph unicode="&#xeb;" horiz-adv-x="1208" d="M127 532q0 163 54 287.5t163 197.5t260 73q116 0 209.5 -36t152.5 -97.5t90 -140t31 -165.5v-57q0 -53 -53 -53h-788q0 -129 45.5 -232t137.5 -166t216 -63q77 0 146.5 14t109 31t72.5 31t45 14q19 0 32 -15.5t13 -39.5q0 -32 -67.5 -65.5t-165.5 -55t-185 -21.5 q-151 0 -270.5 75.5t-183.5 202.5t-64 281zM256 645h713q0 157 -98.5 247.5t-266.5 90.5q-284 0 -348 -338zM352 1350q0 40 10.5 57.5t43.5 17.5h6q33 0 43 -17t10 -58q0 -42 -10 -60t-43 -18h-6q-33 0 -43.5 18t-10.5 60zM754 1350q0 41 10 58t43 17h6q33 0 43 -17t10 -58 q0 -42 -10 -60t-43 -18h-6q-33 0 -43 18t-10 60z" />
<glyph unicode="&#xec;" horiz-adv-x="600" d="M147 1470q0 20 15 34t37 14q33 0 55 -31l188 -227q13 -16 13 -35t-12.5 -32t-32.5 -13q-24 0 -45 24l-203 232q-15 18 -15 34zM244 53v959q0 53 53 53h6q53 0 53 -53v-959q0 -53 -53 -53h-6q-53 0 -53 53z" />
<glyph unicode="&#xed;" horiz-adv-x="600" d="M147 1225q0 22 13 35l188 227q22 31 55 31q22 0 37 -14t15 -34q0 -16 -15 -34l-202 -232q-21 -24 -45 -24q-20 0 -33 13t-13 32zM244 53v959q0 53 53 53h6q53 0 53 -53v-959q0 -53 -53 -53h-6q-53 0 -53 53z" />
<glyph unicode="&#xee;" horiz-adv-x="600" d="M29 1219q0 17 14 34l168 220q37 49 88 49q53 0 90 -49l168 -220q14 -14 14 -34q0 -17 -13 -29t-30 -12q-29 0 -51 28l-176 215l-178 -217q-23 -26 -51 -26q-18 0 -30.5 11.5t-12.5 29.5zM244 53v959q0 53 53 53h6q53 0 53 -53v-959q0 -53 -53 -53h-6q-53 0 -53 53z" />
<glyph unicode="&#xef;" horiz-adv-x="600" d="M43 1350q0 41 10 58t43 17h6q33 0 43.5 -17.5t10.5 -57.5q0 -42 -10.5 -60t-43.5 -18h-6q-33 0 -43 18t-10 60zM244 53v959q0 53 53 53h6q53 0 53 -53v-959q0 -53 -53 -53h-6q-53 0 -53 53zM444 1350q0 40 10.5 57.5t43.5 17.5h6q33 0 43 -17t10 -58q0 -42 -10 -60 t-43 -18h-6q-33 0 -43.5 18t-10.5 60z" />
<glyph unicode="&#xf0;" horiz-adv-x="1327" d="M82 532q0 152 75 280.5t203.5 203t280.5 74.5q217 0 375 -142q-41 83 -101.5 174t-107.5 135l-342 -40h-10q-47 0 -47 51q0 37 49 43l272 35l-72 59q-36 36 -36 53q0 18 14 30.5t33 12.5q29 0 73.5 -35.5t112.5 -103.5l250 31h10q47 0 47 -50q0 -37 -49 -43l-172 -22 q123 -148 191.5 -345t68.5 -401q0 -114 -44 -217.5t-119 -178.5t-178.5 -119t-217.5 -44t-217.5 44t-178.5 119t-119 178.5t-44 217.5zM201 532q0 -189 127 -320.5t313 -131.5q185 0 312.5 132t127.5 320q0 187 -127.5 319t-312.5 132q-186 0 -313 -132t-127 -319z" />
<glyph unicode="&#xf1;" horiz-adv-x="1292" d="M240 53v959q0 28 11 40.5t38 12.5h6q51 0 51 -53v-54q63 47 158 89.5t194 42.5q103 0 177.5 -27t118 -77.5t63.5 -115.5t20 -147v-670q0 -53 -53 -53h-6q-55 0 -55 53v660q0 134 -73 202t-192 68q-167 0 -346 -131v-799q0 -53 -53 -53h-6q-53 0 -53 53zM334 1296 q0 52 57.5 97t122.5 45q61 0 172 -40t141 -40q28 0 50 12t33.5 27t26 27t28.5 12q15 0 30 -10t15 -27q0 -54 -62.5 -95.5t-126.5 -41.5q-53 0 -162 39.5t-145 39.5q-28 0 -50 -12.5t-32.5 -28t-24 -28t-28.5 -12.5t-30 8.5t-15 27.5z" />
<glyph unicode="&#xf2;" horiz-adv-x="1318" d="M121 532q0 153 69.5 281t192.5 202.5t274 74.5q114 0 214.5 -44t172 -119t113 -178t41.5 -217q0 -153 -70 -281t-194.5 -203t-276.5 -75q-151 0 -274 75t-192.5 203t-69.5 281zM240 532q0 -191 117 -321.5t300 -130.5q122 0 219.5 61t150 164t52.5 227q0 189 -119 320 t-303 131q-121 0 -217 -61t-148 -163.5t-52 -226.5zM424 1470q0 20 14.5 34t36.5 14q33 0 55 -31l189 -227q12 -15 12 -35q0 -19 -12.5 -32t-32.5 -13q-24 0 -45 24l-203 232q-14 17 -14 34z" />
<glyph unicode="&#xf3;" horiz-adv-x="1318" d="M121 532q0 153 69.5 281t192.5 202.5t274 74.5q114 0 214.5 -44t172 -119t113 -178t41.5 -217q0 -153 -70 -281t-194.5 -203t-276.5 -75q-151 0 -274 75t-192.5 203t-69.5 281zM240 532q0 -191 117 -321.5t300 -130.5q122 0 219.5 61t150 164t52.5 227q0 189 -119 320 t-303 131q-121 0 -217 -61t-148 -163.5t-52 -226.5zM596 1225q0 23 12 35l189 227q22 31 55 31q22 0 36.5 -14t14.5 -34q0 -17 -14 -34l-203 -232q-21 -24 -45 -24q-20 0 -32.5 13t-12.5 32z" />
<glyph unicode="&#xf4;" horiz-adv-x="1318" d="M121 532q0 153 69.5 281t192.5 202.5t274 74.5q114 0 214.5 -44t172 -119t113 -178t41.5 -217q0 -153 -70 -281t-194.5 -203t-276.5 -75q-151 0 -274 75t-192.5 203t-69.5 281zM240 532q0 -191 117 -321.5t300 -130.5q122 0 219.5 61t150 164t52.5 227q0 189 -119 320 t-303 131q-121 0 -217 -61t-148 -163.5t-52 -226.5zM387 1219q0 17 14 34l168 220q37 49 88 49q54 0 91 -49l167 -220q15 -15 15 -34q0 -17 -13 -29t-30 -12q-29 0 -51 28l-177 215l-178 -217q-23 -26 -51 -26q-18 0 -30.5 11.5t-12.5 29.5z" />
<glyph unicode="&#xf5;" horiz-adv-x="1318" d="M121 532q0 153 69.5 281t192.5 202.5t274 74.5q114 0 214.5 -44t172 -119t113 -178t41.5 -217q0 -153 -70 -281t-194.5 -203t-276.5 -75q-151 0 -274 75t-192.5 203t-69.5 281zM240 532q0 -191 117 -321.5t300 -130.5q122 0 219.5 61t150 164t52.5 227q0 189 -119 320 t-303 131q-121 0 -217 -61t-148 -163.5t-52 -226.5zM319 1296q0 52 58 97t123 45q61 0 172 -40t141 -40q35 0 60 19.5t42.5 39t34.5 19.5q15 0 30 -10t15 -27q0 -54 -62 -95.5t-126 -41.5q-53 0 -162 39.5t-145 39.5q-28 0 -50 -12.5t-32.5 -28t-24 -28t-28.5 -12.5 t-30.5 8.5t-15.5 27.5z" />
<glyph unicode="&#xf6;" horiz-adv-x="1318" d="M121 532q0 153 69.5 281t192.5 202.5t274 74.5q114 0 214.5 -44t172 -119t113 -178t41.5 -217q0 -153 -70 -281t-194.5 -203t-276.5 -75q-151 0 -274 75t-192.5 203t-69.5 281zM240 532q0 -191 117 -321.5t300 -130.5q122 0 219.5 61t150 164t52.5 227q0 189 -119 320 t-303 131q-121 0 -217 -61t-148 -163.5t-52 -226.5zM401 1350q0 40 10.5 57.5t43.5 17.5h6q33 0 43 -17t10 -58q0 -42 -10 -60t-43 -18h-6q-33 0 -43.5 18t-10.5 60zM803 1350q0 41 10 58t43 17h6q33 0 43 -17t10 -58q0 -42 -10 -60t-43 -18h-6q-33 0 -43 18t-10 60z" />
<glyph unicode="&#xf7;" d="M176 666v2q0 55 55 55h932q56 0 56 -55v-2q0 -54 -56 -54h-932q-55 0 -55 54zM631 252v37q0 55 53 55h27q53 0 53 -55v-37q0 -53 -53 -53h-27q-53 0 -53 53zM631 1044v35q0 56 53 56h27q53 0 53 -56v-35q0 -55 -53 -55h-27q-53 0 -53 55z" />
<glyph unicode="&#xf8;" horiz-adv-x="1370" d="M92 -4q0 22 21 43l137 139q-123 151 -123 354q0 114 44 217.5t118.5 178.5t177.5 119.5t217 44.5q200 0 348 -123l113 114q15 21 37 21q18 0 36.5 -16.5t18.5 -34.5q0 -17 -20 -37l-113 -115q141 -161 141 -369q0 -152 -75.5 -281t-204.5 -203.5t-281 -74.5 q-102 0 -196.5 36.5t-168.5 101.5l-139 -142q-18 -18 -37 -18q-16 0 -33.5 13t-17.5 32zM246 532q0 -152 86 -274l620 633q-118 94 -268 94q-91 0 -172.5 -36t-139.5 -97t-92 -144.5t-34 -175.5zM395 186q122 -106 289 -106q187 0 314.5 132t127.5 320q0 163 -102 289z" />
<glyph unicode="&#xf9;" horiz-adv-x="1249" d="M215 379v633q0 53 53 53h6q56 0 56 -53v-629q0 -143 79.5 -223t215.5 -80q135 0 215 80t80 223v629q0 53 53 53h6q55 0 55 -53v-633q0 -183 -110 -294.5t-299 -111.5q-193 0 -301.5 111t-108.5 295zM414 1470q0 20 14.5 34t36.5 14q33 0 55 -31l189 -227q12 -15 12 -35 q0 -19 -12.5 -32t-32.5 -13q-24 0 -45 24l-203 232q-14 17 -14 34z" />
<glyph unicode="&#xfa;" horiz-adv-x="1249" d="M215 379v633q0 53 53 53h6q56 0 56 -53v-629q0 -143 79.5 -223t215.5 -80q135 0 215 80t80 223v629q0 53 53 53h6q55 0 55 -53v-633q0 -183 -110 -294.5t-299 -111.5q-193 0 -301.5 111t-108.5 295zM557 1225q0 23 12 35l189 227q22 31 55 31q22 0 36.5 -14t14.5 -34 q0 -17 -14 -34l-203 -232q-21 -24 -45 -24q-20 0 -32.5 13t-12.5 32z" />
<glyph unicode="&#xfb;" horiz-adv-x="1249" d="M215 379v633q0 53 53 53h6q56 0 56 -53v-629q0 -143 79.5 -223t215.5 -80q135 0 215 80t80 223v629q0 53 53 53h6q55 0 55 -53v-633q0 -183 -110 -294.5t-299 -111.5q-193 0 -301.5 111t-108.5 295zM350 1219q0 16 15 34l167 220q37 49 89 49q53 0 90 -49l168 -220 q14 -14 14 -34q0 -17 -13 -29t-30 -12q-29 0 -51 28l-176 215l-179 -217q-23 -26 -51 -26q-18 0 -30.5 11.5t-12.5 29.5z" />
<glyph unicode="&#xfc;" horiz-adv-x="1249" d="M215 379v633q0 53 53 53h6q56 0 56 -53v-629q0 -143 79.5 -223t215.5 -80q135 0 215 80t80 223v629q0 53 53 53h6q55 0 55 -53v-633q0 -183 -110 -294.5t-299 -111.5q-193 0 -301.5 111t-108.5 295zM365 1350q0 41 10 58t43 17h6q33 0 43 -17t10 -58q0 -42 -10 -60 t-43 -18h-6q-33 0 -43 18t-10 60zM766 1350q0 41 10 58t43 17h6q33 0 43.5 -17.5t10.5 -57.5q0 -42 -10.5 -60t-43.5 -18h-6q-33 0 -43 18t-10 60z" />
<glyph unicode="&#xfd;" horiz-adv-x="1120" d="M-33 -414q0 21 13.5 39.5t35.5 18.5q10 0 42.5 -8.5t68.5 -8.5q56 0 105.5 23t85 56.5t74 95t64 113.5t62.5 136l-426 955q-6 18 -6 30q0 25 15 39.5t38 14.5q43 0 62 -43l374 -863l369 865q17 41 60 41q21 0 37 -14t16 -38q0 -15 -6 -30l-424 -973q-89 -202 -142 -285 q-114 -180 -271 -216q-45 -11 -95 -11q-70 0 -111 16t-41 47zM508 1225q0 23 12 35l189 227q22 31 55 31q22 0 36.5 -14t14.5 -34q0 -17 -14 -34l-203 -232q-21 -24 -45 -24q-20 0 -32.5 13t-12.5 32z" />
<glyph unicode="&#xfe;" horiz-adv-x="1413" d="M244 -395v1855q0 56 53 56q55 0 55 -56v-471q71 38 171.5 69.5t207.5 31.5q114 0 215.5 -44t174 -119t115 -178t42.5 -217q0 -152 -75.5 -281t-204.5 -203.5t-281 -74.5q-103 0 -186 19.5t-175 56.5v-444q0 -58 -57 -58q-55 0 -55 58zM356 164q91 -42 175 -63t186 -21 q185 0 313.5 132t128.5 320t-122 319.5t-306 131.5q-101 0 -207 -33t-168 -67v-719z" />
<glyph unicode="&#xff;" horiz-adv-x="1120" d="M-33 -414q0 21 13.5 39.5t35.5 18.5q10 0 42.5 -8.5t68.5 -8.5q56 0 105.5 23t85 56.5t74 95t64 113.5t62.5 136l-426 955q-6 18 -6 30q0 25 15 39.5t38 14.5q43 0 62 -43l374 -863l369 865q17 41 60 41q21 0 37 -14t16 -38q0 -15 -6 -30l-424 -973q-89 -202 -142 -285 q-114 -180 -271 -216q-45 -11 -95 -11q-70 0 -111 16t-41 47zM334 1350q0 41 10 58t43 17h6q33 0 43 -17t10 -58q0 -42 -10 -60t-43 -18h-6q-33 0 -43 18t-10 60zM735 1350q0 41 10 58t43 17h7q33 0 43 -17t10 -58q0 -42 -10 -60t-43 -18h-7q-33 0 -43 18t-10 60z" />
<glyph unicode="&#x152;" horiz-adv-x="2555" d="M147 700q0 148 57.5 283.5t155 234t231.5 156.5t281 58q189 0 351 -90t262 -244v254q0 53 55 53h778q56 0 56 -57q0 -56 -56 -56h-716v-510h684q53 0 53 -55t-53 -55h-684v-559h755q53 0 53 -56q0 -57 -53 -57h-817q-55 0 -55 53v250q-100 -152 -262 -241t-351 -89 q-196 0 -363 98t-264.5 265.5t-97.5 363.5zM266 700q0 -166 81 -308t220.5 -225t304.5 -83q126 0 239.5 49t194.5 132t129 196.5t48 238.5q0 126 -48 241t-129 198t-194.5 132.5t-239.5 49.5q-165 0 -304.5 -83.5t-220.5 -226.5t-81 -311z" />
<glyph unicode="&#x153;" horiz-adv-x="2215" d="M127 532q0 114 44 217.5t118.5 178.5t177.5 119.5t217 44.5q158 0 291 -82.5t205 -218.5q62 137 184.5 219t280.5 82q115 0 211.5 -36.5t159.5 -98t97.5 -141t34.5 -165.5v-57q0 -53 -55 -53h-848q0 -192 124.5 -326.5t313.5 -134.5q68 0 135.5 14.5t110 31.5t84 31.5 t64.5 14.5q19 0 33 -15.5t14 -39.5q0 -50 -139.5 -97t-301.5 -47q-161 0 -295 84.5t-204 223.5q-70 -139 -204.5 -223.5t-295.5 -84.5q-152 0 -280.5 75t-202.5 203.5t-74 280.5zM246 532q0 -189 126.5 -320.5t311.5 -131.5q184 0 313 130t129 322q0 187 -128 320t-314 133 q-91 0 -172.5 -36t-139.5 -97t-92 -144.5t-34 -175.5zM1253 645h777q0 155 -108 247.5t-277 92.5q-154 0 -258 -94.5t-134 -245.5z" />
<glyph unicode="&#x178;" horiz-adv-x="1247" d="M84 1378q0 23 15.5 38.5t37.5 15.5q33 0 53 -35l433 -721l434 719q21 37 57 37q21 0 36 -14.5t15 -35.5q0 -18 -12 -36l-473 -787v-506q0 -53 -53 -53h-9q-53 0 -53 53v506l-471 782q-10 15 -10 37zM365 1690q0 41 10 58t43 17h6q33 0 43 -17t10 -58q0 -42 -10 -60 t-43 -18h-6q-33 0 -43 18t-10 60zM766 1690q0 41 10 58t43 17h6q33 0 43.5 -17.5t10.5 -57.5q0 -42 -10.5 -60t-43.5 -18h-6q-33 0 -43 18t-10 60z" />
<glyph unicode="&#x2c6;" horiz-adv-x="1003" d="M229 1219q0 16 15 34l168 220q37 49 88 49q53 0 90 -49l168 -220q14 -14 14 -34q0 -17 -13 -29t-30 -12q-29 0 -51 28l-176 215l-178 -217q-23 -26 -52 -26q-18 0 -30.5 11.5t-12.5 29.5z" />
<glyph unicode="&#x2dc;" horiz-adv-x="1003" d="M164 1296q0 52 57.5 97t122.5 45q61 0 172 -40t141 -40q28 0 50 12t33.5 27t26 27t28.5 12q15 0 30 -10t15 -27q0 -54 -62.5 -95.5t-126.5 -41.5q-53 0 -162 39.5t-145 39.5q-28 0 -50 -12.5t-32.5 -28t-24 -28t-28.5 -12.5t-30 8.5t-15 27.5z" />
<glyph unicode="&#x2000;" horiz-adv-x="931" />
<glyph unicode="&#x2001;" horiz-adv-x="1862" />
<glyph unicode="&#x2002;" horiz-adv-x="931" />
<glyph unicode="&#x2003;" horiz-adv-x="1862" />
<glyph unicode="&#x2004;" horiz-adv-x="620" />
<glyph unicode="&#x2005;" horiz-adv-x="465" />
<glyph unicode="&#x2006;" horiz-adv-x="310" />
<glyph unicode="&#x2007;" horiz-adv-x="310" />
<glyph unicode="&#x2008;" horiz-adv-x="232" />
<glyph unicode="&#x2009;" horiz-adv-x="372" />
<glyph unicode="&#x200a;" horiz-adv-x="103" />
<glyph unicode="&#x2010;" horiz-adv-x="1112" d="M244 666v2q0 55 53 55h518q53 0 53 -55v-2q0 -54 -53 -54h-518q-53 0 -53 54z" />
<glyph unicode="&#x2011;" horiz-adv-x="1112" d="M244 666v2q0 55 53 55h518q53 0 53 -55v-2q0 -54 -53 -54h-518q-53 0 -53 54z" />
<glyph unicode="&#x2012;" horiz-adv-x="1112" d="M244 666v2q0 55 53 55h518q53 0 53 -55v-2q0 -54 -53 -54h-518q-53 0 -53 54z" />
<glyph unicode="&#x2013;" horiz-adv-x="1505" d="M244 666v2q0 55 53 55h911q54 0 54 -55v-2q0 -54 -54 -54h-911q-53 0 -53 54z" />
<glyph unicode="&#x2014;" horiz-adv-x="2568" d="M244 666v2q0 55 53 55h1974q56 0 56 -55v-2q0 -54 -56 -54h-1974q-53 0 -53 54z" />
<glyph unicode="&#x2018;" horiz-adv-x="548" d="M145 989q0 12 7 29l149 364q17 41 55 41q21 0 35.5 -12.5t14.5 -32.5q0 -5 -5 -20l-133 -365q-20 -55 -69 -55q-23 0 -38.5 13.5t-15.5 37.5z" />
<glyph unicode="&#x2019;" horiz-adv-x="548" d="M143 975q0 4 4 20l134 365q20 55 69 55q23 0 38 -13.5t15 -37.5q0 -14 -6 -29l-149 -364q-17 -41 -55 -41q-21 0 -35.5 12.5t-14.5 32.5z" />
<glyph unicode="&#x201a;" horiz-adv-x="548" d="M143 -315q0 4 4 20l134 365q20 55 69 55q23 0 38 -13.5t15 -37.5q0 -14 -6 -29l-149 -364q-17 -41 -55 -41q-21 0 -35.5 12.5t-14.5 32.5z" />
<glyph unicode="&#x201c;" horiz-adv-x="835" d="M145 989q0 12 7 29l149 364q17 41 55 41q21 0 35.5 -12.5t14.5 -32.5q0 -5 -5 -20l-133 -365q-20 -55 -69 -55q-23 0 -38.5 13.5t-15.5 37.5zM432 989q0 14 6 29l150 364q17 41 55 41q21 0 35 -12.5t14 -32.5q0 -8 -4 -20l-133 -365q-20 -55 -70 -55q-23 0 -38 13.5 t-15 37.5z" />
<glyph unicode="&#x201d;" horiz-adv-x="835" d="M143 975q0 4 4 20l134 365q20 55 69 55q23 0 38 -13.5t15 -37.5q0 -14 -6 -29l-149 -364q-17 -41 -55 -41q-21 0 -35.5 12.5t-14.5 32.5zM430 975q0 4 4 20l133 365q20 55 70 55q23 0 38 -13.5t15 -37.5q0 -14 -6 -29l-149 -364q-17 -41 -56 -41q-21 0 -35 12.5t-14 32.5 z" />
<glyph unicode="&#x201e;" horiz-adv-x="835" d="M143 -315q0 4 4 20l134 365q20 55 69 55q23 0 38 -13.5t15 -37.5q0 -14 -6 -29l-149 -364q-17 -41 -55 -41q-21 0 -35.5 12.5t-14.5 32.5zM430 -315q0 4 4 20l133 365q20 55 70 55q23 0 38 -13.5t15 -37.5q0 -14 -6 -29l-149 -364q-17 -41 -56 -41q-21 0 -35 12.5 t-14 32.5z" />
<glyph unicode="&#x2022;" horiz-adv-x="978" d="M231 666q0 91 73 145.5t183 54.5q112 0 186.5 -54.5t74.5 -145.5q0 -90 -75 -145.5t-186 -55.5q-110 0 -183 55.5t-73 145.5z" />
<glyph unicode="&#x2026;" horiz-adv-x="1828" d="M209 53v37q0 55 53 55h27q55 0 55 -55v-37q0 -53 -55 -53h-27q-53 0 -53 53zM848 53v37q0 55 53 55h27q53 0 53 -55v-37q0 -53 -53 -53h-27q-53 0 -53 53zM1483 53v37q0 55 55 55h25q55 0 55 -55v-37q0 -53 -55 -53h-25q-55 0 -55 53z" />
<glyph unicode="&#x202f;" horiz-adv-x="372" />
<glyph unicode="&#x2039;" horiz-adv-x="884" d="M154 600q0 19 20 39l361 346q3 3 11.5 12t12 13t11.5 12t13 11.5t13.5 9t15.5 8t15.5 4.5t17.5 2q57 0 57 -29q0 -10 -4 -16q-6 -9 -14.5 -19t-15 -16.5t-18 -17.5t-15.5 -15l-346 -344l346 -344q4 -4 15.5 -15t18.5 -18t15.5 -17t13.5 -18q4 -6 4 -16q0 -29 -57 -29 q-12 0 -23.5 3.5t-19.5 6.5t-18.5 12.5t-15 14t-17 18t-16.5 17.5l-361 346q-20 20 -20 39z" />
<glyph unicode="&#x203a;" horiz-adv-x="884" d="M176 164q0 8 6 20q4 9 15.5 21t30 29.5t22.5 21.5l346 344l-346 344q-4 4 -20 19t-26.5 26.5t-17.5 22.5q-4 6 -4 16q0 29 60 29q12 0 23 -3t18.5 -7t18 -13t15.5 -13.5t17 -17.5t16 -18l361 -346q20 -17 20 -39t-20 -39l-361 -346q-3 -3 -13 -14t-14 -15t-13.5 -13 t-15.5 -12.5t-15 -8.5t-18 -7t-19 -2h-11h-11h-10t-9.5 0.5t-8 1.5t-7 2.5t-5 3.5t-3.5 5.5t-1 7.5z" />
<glyph unicode="&#x205f;" horiz-adv-x="465" />
<glyph unicode="&#x20ac;" horiz-adv-x="1503" d="M94 532q0 23 15 35q15 15 41 15h112q-4 74 -4 116q0 16 1 47t1 46h-110q-56 0 -56 55q0 49 56 49h122q41 279 185.5 408t410.5 129q96 0 175 -18t132.5 -48.5t92.5 -73t60.5 -87.5t31.5 -97q2 -6 2 -16q0 -45 -66 -45q-16 0 -29 15t-25 39.5t-28 53.5t-44 58t-66.5 53.5 t-102 39.5t-143.5 15q-216 0 -323 -99t-142 -327h660q49 0 49 -43q0 -30 -17 -45.5t-45 -15.5h-657q-4 -62 -4 -91q0 -81 4 -118h590q49 0 49 -41q0 -31 -17.5 -47.5t-46.5 -16.5h-559q40 -212 160 -303.5t354 -91.5q157 0 297 45q8 3 29.5 12.5t39 15t32.5 5.5 q20 0 33.5 -16.5t13.5 -45.5t-70.5 -58.5t-175 -48t-201.5 -18.5q-278 0 -432 121t-203 383h-126q-56 0 -56 55z" />
<glyph unicode="&#x2122;" horiz-adv-x="2138" d="M123 1360q0 45 53 45h514q9 0 26 0.5t26.5 0.5t23.5 -1t22 -4.5t16 -9t11.5 -15.5t3.5 -24q0 -45 -55 -45h-242v-490q0 -9 0.5 -26.5t0.5 -26.5t-1 -22.5t-4.5 -20.5t-9.5 -15t-16.5 -11t-24.5 -3q-12 0 -21 3t-14.5 11t-8.5 15t-4 21t-1.5 22t0 26.5t0.5 26.5v490h-180 h-21h-20.5t-17.5 0.5t-16.5 1.5t-13 3.5t-11.5 6.5t-8 9.5t-5.5 13.5t-1.5 18zM905 733q0 13 2 19l101 528q2 9 5 31.5t5 31t7.5 24t12.5 21.5t19.5 11.5t29.5 5.5q16 0 29.5 -5.5t24.5 -19t17.5 -23t17.5 -30.5t16 -29l242 -415l239 415q4 7 16 29t18 31t18 22.5t24.5 19 t28.5 5.5q18 0 31 -6t20.5 -13.5t12.5 -22.5t7 -24.5t5 -30t4 -28.5l100 -528q0 -2 1 -5t1 -4q0 -25 -10.5 -38t-38.5 -13q-11 0 -20 3.5t-15.5 11.5t-11 15t-8 21t-5 21.5t-4.5 25t-4 23.5l-84 432l-264 -459q-21 -36 -63 -36q-41 0 -62 36l-264 459l-82 -432 q-1 -6 -4.5 -26.5t-5.5 -29t-7.5 -24t-12 -22.5t-18 -13t-26.5 -6q-45 0 -45 41z" />
<glyph unicode="&#xe000;" horiz-adv-x="1085" d="M0 0v1085h1085v-1085h-1085z" />
<glyph unicode="&#xfb03;" horiz-adv-x="2191" d="M-102 -346q0 26 15.5 42.5t35.5 16.5q22 0 73 -12t76 -12q47 0 83 11.5t62.5 46.5t26.5 91v1125h-172q-53 0 -53 55q0 47 53 47h174v92q0 91 30 159.5t83.5 109t121.5 60t150 19.5q27 0 43 -0.5t45 -2t47 -5.5t37.5 -10.5t29 -18t9.5 -26.5q0 -56 -45 -56 q-23 0 -79.5 8.5t-88.5 8.5q-127 0 -198.5 -56.5t-71.5 -189.5v-92h668v92q0 91 30 159.5t83.5 109t122 60t151.5 19.5q41 0 66.5 -1t64.5 -6.5t59.5 -19.5t20.5 -36q0 -56 -47 -56q-23 0 -79 8.5t-87 8.5q-129 0 -201 -56.5t-72 -189.5v-92h727q56 0 56 -53v-959 q0 -53 -56 -53h-6q-53 0 -53 53v910h-668v-1133q0 -124 -80 -188t-204 -64q-28 0 -59 3.5t-65.5 11t-56.5 23.5t-22 38q0 26 15.5 42.5t35.5 16.5q22 0 73.5 -12t76.5 -12q74 0 124 34t50 115v1125h-668v-1133q0 -124 -81 -188t-204 -64q-28 0 -59 3.5t-65 11t-56 23.5 t-22 38zM1833 1268v84q0 53 53 53h6q56 0 56 -53v-84q0 -54 -56 -54h-6q-53 0 -53 54z" />
<glyph unicode="&#xfb04;" horiz-adv-x="2330" d="M-102 -346q0 26 15.5 42.5t35.5 16.5q22 0 73 -12t76 -12q47 0 83.5 12t62.5 47t26 90v1125h-172q-53 0 -53 55q0 47 53 47h174v92q0 91 30 159.5t83.5 109t121.5 60t150 19.5q27 0 43 -0.5t45 -2t47 -5.5t37.5 -10.5t29 -18t9.5 -26.5q0 -56 -45 -56q-23 0 -79.5 8.5 t-88.5 8.5q-127 0 -198.5 -56.5t-71.5 -189.5v-92h668v92q0 91 30 159.5t83.5 109t122 60t151.5 19.5q41 0 66.5 -1t64.5 -6.5t59.5 -19.5t20.5 -36q0 -56 -47 -56q-23 0 -79 8.5t-87 8.5q-129 0 -201 -56.5t-72 -189.5v-92h324q53 0 53 -45q0 -22 -9.5 -35t-31 -18 t-36.5 -6t-47 0.5t-42 1.5h-211v-1031q0 -188 -63.5 -271t-220.5 -83q-70 0 -136.5 18t-66.5 58q0 26 15.5 42.5t35.5 16.5q22 0 73.5 -12t76.5 -12q47 0 84 12t63.5 47t26.5 90v1125h-668v-1031q0 -188 -64 -271t-221 -83q-41 0 -83 5.5t-80.5 24t-38.5 46.5zM1833 326 v1134q0 26 16 41t39 15q25 0 42.5 -15t17.5 -41v-1274q0 -104 135 -104q33 0 95 18.5t85 18.5q20 0 33.5 -15.5t13.5 -40.5q0 -39 -79.5 -63.5t-157.5 -24.5q-76 0 -122.5 16.5t-73 60t-35.5 106.5t-9 168z" />
</font>
</defs>
</svg>
